<?xml version="1.0" encoding="UTF-8"?>
<svg id="Lag_1" data-name="Lag 1" xmlns="http://www.w3.org/2000/svg" viewBox="0 0 300 250">
  <path d="M5.33,161.28c1.37-1.67,3.68-1.69,5.54-.85,2.19.99,3.42,3.23,4.25,5.37s1.48,4.59,2.31,6.85c.89,2.41,1.9,4.78,3.03,7.1s2.39,4.59,3.75,6.78c1.23,1.97,2.49,4.18,4.3,5.69,3.75,3.13,7.79,0,10.26-3.15,2.77-3.54,4.22-7.82,6.5-11.66s5.83-7.84,10.68-7.8,9.03,4.08,12.56,7.14c4.07,3.53,8.24,6.95,12.51,10.24,9.65,7.45,19.77,14.27,30.29,20.42.83.49,1.59-.81.76-1.3-9.6-5.62-18.87-11.78-27.75-18.48-4.56-3.45-9.02-7.04-13.36-10.76-3.62-3.1-7.24-6.9-11.94-8.3-4.31-1.29-8.49.33-11.56,3.45-3.24,3.29-4.94,7.56-7.04,11.59-1.7,3.26-6.33,11.16-10.84,7.53-1.94-1.56-3.26-4.04-4.53-6.14-1.42-2.33-2.71-4.75-3.86-7.22-1.31-2.82-2.44-5.72-3.38-8.68-.78-2.45-1.47-5.02-2.97-7.15-2.25-3.2-7.61-5.34-10.57-1.75-.61.74.45,1.81,1.06,1.06h0Z"/>
  <path d="M111.69,207.52c8.92.91,17.89.39,26.78-.55s17.93-2.15,26.9-3.26c17.92-2.21,35.84-4.42,53.76-6.63,10.16-1.25,20.32-2.51,30.47-3.76.95-.12.96-1.62,0-1.5-18,2.22-36.01,4.44-54.01,6.66s-35.78,4.54-53.69,6.61c-10.02,1.16-20.14,1.96-30.21.94-.96-.1-.95,1.4,0,1.5h0Z"/>
  <path d="M250.33,193.08c1.53,1.12,3.65.19,4.41-1.41.94-1.99-.58-4.15-2.34-5.03-2.49-1.24-5.53-.43-8.13-.06-3.36.48-6.72.94-10.09,1.38-13.32,1.73-26.68,3.11-40.08,4.14-6.65.51-13.32.94-19.98,1.28-3.09.16-6.26.49-9.36.3-2.8-.17-6.15-1.38-6.7-4.52s3.22-4.84,5.46-6.02c2.62-1.38,5.38-2.48,8.23-3.3s5.77-1.34,8.73-1.55,6.09-.29,8.97.37c1.46.33,2.98.95,3.88,2.21.76,1.06,1.14,2.65.39,3.81-.95,1.47-3.35,2.06-4.88,2.65s-3.16,1.18-4.77,1.69c-6.8,2.19-13.86,3.48-21,3.87-.96.05-.97,1.55,0,1.5,6.5-.36,12.95-1.43,19.2-3.25,3.09-.9,6.13-1.98,9.09-3.23,2.13-.9,4.23-2.06,4.25-4.65.07-5.93-7.37-6.55-11.69-6.58-5.98-.04-11.96,1.14-17.48,3.43-3.92,1.63-11.74,4.73-9.59,10.33s9.44,4.81,14.29,4.58c13.99-.66,27.97-1.7,41.9-3.12,7.87-.8,15.73-1.72,23.57-2.77,3.85-.51,7.73-1.28,11.6-1.59,1.78-.14,3.99.02,4.98,1.78.76,1.36-.53,3.64-2.12,2.47-.78-.57-1.53.73-.76,1.3h0Z"/>
  <path d="M158.24,191.32c-6.79,1.81-13.61,3.47-20.47,4.96-3.51.76-7.03,1.49-10.56,2.16s-6.86,1.44-10.29.92-6.19-2.36-8.92-4.21-5.71-3.87-8.56-5.81c-5.87-3.98-11.84-7.86-17.63-11.96-1.66-1.18-5.41-4.49-3.28-6.72,1.03-1.08,2.97-1.21,4.35-1.51,1.67-.37,3.36-.7,5.04-1,6.68-1.19,13.44-1.89,20.21-2.31,13.46-.84,26.95-.58,40.42-.81,15.01-.25,30.11-1.13,44.74-4.74.94-.23.54-1.68-.4-1.45-27.9,6.88-56.84,3.69-85.23,5.52-6.9.44-13.79,1.18-20.6,2.42-1.69.31-3.37.64-5.04,1.02-1.44.32-3.1.55-4.27,1.53-1.83,1.55-1.48,3.93-.3,5.77,1.66,2.58,4.4,4.12,6.88,5.8,3.14,2.13,6.29,4.26,9.43,6.4s6.01,4.08,9.02,6.12,5.8,4.19,8.97,5.78c3.35,1.68,6.83,2.06,10.52,1.6,4.05-.5,8.07-1.43,12.06-2.26,8.15-1.7,16.26-3.63,24.31-5.78.93-.25.54-1.7-.4-1.45h0Z"/>
  <path d="M192.84,160.73c7.21-.17,14.24,1.5,20.96,4,6.52,2.43,12.99,5.44,19.09,8.8,2.5,1.38,5.09,3.02,6.75,5.41.35.51.67,1.05.91,1.62.16.38.66,1.39.52,1.8-.44,1.31-3.59.26-4.44-.06-2.93-1.09-5.77-2.63-8.51-4.12s-5.18-2.98-7.63-4.68c-5-3.46-9.63-7.6-13.21-12.54-3.88-5.35-6.2-11.46-7.33-17.95-1.22-7.07-1.19-14.29-1.5-21.43-.32-7.55-.91-15.1-1.77-22.61-1.93-16.86-5.19-33.56-9.74-49.91-.26-.93-1.71-.53-1.45.4,4.37,15.67,7.56,31.67,9.49,47.83.96,7.99,1.61,16.01,1.96,24.05.32,7.44.3,14.94,1.6,22.29,1.19,6.72,3.68,13.05,7.77,18.54,3.77,5.06,8.54,9.28,13.74,12.84,2.68,1.83,5.47,3.49,8.34,5.01s5.59,3.05,8.55,3.97c1.3.4,2.78.63,4.1.17.46-.16,1.14-.45,1.42-.88.3-.46.1-1.15,0-1.65-.55-2.67-2.38-4.87-4.45-6.54-2.36-1.9-5.07-3.27-7.77-4.61-3.49-1.73-6.99-3.43-10.56-4.98-6.76-2.93-13.82-5.33-21.19-6.07-1.87-.19-3.75-.25-5.64-.21-.96.02-.97,1.52,0,1.5h0Z"/>
  <path d="M62.64,51.69c16.66-2.71,33.43-4.66,50.27-5.84s33.51-1.6,50.27-1.26c7.36.15,16.96-.67,22.5,5.2.66.7,1.72-.36,1.06-1.06-4.66-4.94-11.8-5.32-18.17-5.51-8.58-.26-17.18-.31-25.76-.17-17.34.29-34.67,1.38-51.91,3.28-9.59,1.06-19.14,2.37-28.66,3.91-.95.15-.55,1.6.4,1.45h0Z"/>
  <path d="M61.91,50.44c-2.26,2.05-1.94,5.28-1.72,8.04.32,3.99.63,7.97.95,11.96.63,7.97,1.26,15.94,1.89,23.91,1.19,14.98,2.08,30.06,4.84,44.85,1.54,8.26,3.72,16.4,6.87,24.19.36.88,1.81.5,1.45-.4-5.44-13.46-7.9-27.85-9.41-42.23-1.59-15.08-2.55-30.24-3.75-45.35-.34-4.32-.68-8.64-1.03-12.95-.16-2.01-.38-4.03-.46-6.05-.07-1.77.03-3.65,1.42-4.91.72-.65-.35-1.71-1.06-1.06h0Z"/>
  <path d="M76.3,164.08c31.43-2.1,62.87-4.2,94.3-6.29,7.09-.47,14.63-.91,20.67-5.08.79-.55.04-1.85-.76-1.3-5.54,3.83-12.4,4.37-18.92,4.81-7.61.51-15.22,1.02-22.83,1.52l-46.16,3.08c-8.77.59-17.54,1.17-26.3,1.76-.96.06-.97,1.56,0,1.5h0Z"/>
  <path d="M193.36,152.06c.69-5.97.28-11.97-.44-17.92s-1.6-11.72-2.42-17.57c-1.68-12-3.37-24.01-5.05-36.01-.94-6.67-1.58-13.47-3.23-20.01-.24-.94-1.68-.54-1.45.4,1.45,5.74,2.06,11.69,2.88,17.55.83,5.92,1.66,11.84,2.49,17.76,1.68,11.98,3.46,23.96,5.03,35.96.86,6.58,1.45,13.23.69,19.85-.11.96,1.39.95,1.5,0h0Z"/>
  <path d="M182.13,60.36c-2.58-5.22-8.77-4.95-13.74-4.75-7.87.32-15.73.67-23.59,1.07-15.56.78-31.12,1.72-46.67,2.81-8.77.61-17.53,1.28-26.29,1.99-.96.08-.96,1.58,0,1.5,30.16-2.45,60.36-4.33,90.59-5.62,3.66-.16,7.41-.55,11.07-.32,3.04.19,5.91,1.2,7.33,4.08.43.87,1.72.11,1.3-.76h0Z"/>
  <path d="M71.61,61.89c-2.96,4.25-2.88,9.67-2.83,14.63.07,6.16.42,12.32.99,18.45,1.13,12.04,3.08,23.98,5.33,35.85,1.3,6.87,2.71,13.72,4.12,20.57.16.76,1.24.66,1.45,0,1.96-6.25,3.96-12.49,5.98-18.72,3.95-12.22,7.96-24.42,12.17-36.55,1.82-5.25,3.68-10.5,5.67-15.69,1.17-3.05,2.27-6.3,3.97-9.11.25-.42.36-.43.53-.73-.05.09-.48-.07-.48-.06-.02.25.17.86.19,1.27.05.84.02,1.68-.01,2.52-.24,5.69-1.03,11.36-1.71,17.01-.91,7.51-1.87,15.02-2.65,22.55-.7,6.8-1.37,13.66-1.3,20.5.01,1.23.06,2.45.16,3.68.05.67,1.05,1.11,1.4.38,2.78-5.87,5.72-11.67,8.73-17.42,5.37-10.28,10.93-20.58,17.55-30.12,2.33-3.37,4.85-7,8.12-9.54.82-.63,1.91-1.34,2.86-1.34.34,0,.62.09.79.26.21.22.34.5.43.95.26,1.2.01,2.66-.22,3.9-.38,2.01-.94,3.99-1.54,5.94-1.53,5.01-3.34,9.94-5.03,14.89s-3.42,10.11-4.59,15.31c-.84,3.72-1.73,8.05-.65,11.82.79,2.74,3.24,4.86,6.21,4.36s5.05-3.61,6.42-6.1c2.25-4.11,3.75-8.64,5.17-13.09,1.64-5.14,3.08-10.33,4.68-15.48,1.35-4.34,2.71-8.77,4.82-12.82,1.01-1.94,2.85-5.29,5.39-4.93,3.4.48,3.94,4.73,3.83,7.46-.21,4.89-1.78,9.72-3.21,14.36-1.5,4.85-3.23,9.68-4.27,14.66-.58,2.78-1.48,7.11.96,9.32,1.09.98,2.61,1.16,4.02,1.03.95-.09.96-1.59,0-1.5-1.23.11-2.62.03-3.39-1.07s-.74-2.81-.63-4.14c.35-4.63,2.02-9.21,3.41-13.6,1.58-5.01,3.29-10.04,4.17-15.23.59-3.48,1.12-7.99-1.39-10.89-1.92-2.22-4.84-2.48-7.04-.58-2.66,2.3-4.08,6.09-5.31,9.29-3.75,9.73-5.91,19.99-9.54,29.76-1.34,3.59-2.85,7.69-5.61,10.47-1.75,1.76-4.49,2.4-6.27.25-2.1-2.52-1.42-6.88-.93-9.82.85-5.13,2.44-10.13,4.07-15.06s3.57-10.22,5.25-15.37c1.21-3.7,2.62-7.62,2.81-11.54.11-2.25-.74-4.74-3.47-4.25-2.99.55-5.46,3.63-7.29,5.81-7.11,8.52-12.55,18.56-17.83,28.28-4.24,7.8-8.29,15.72-12.15,23.72-.21.43-.41.86-.62,1.29l1.4.38c-.52-6.4.08-12.92.66-19.29.71-7.78,1.67-15.54,2.62-23.29.78-6.39,1.66-12.79,2.11-19.21.07-1.01.98-7.88-1.62-7.05-.81.26-1.29,1.31-1.65,2-.74,1.39-1.36,2.86-1.97,4.31-1.93,4.62-3.63,9.34-5.31,14.05-4.43,12.44-8.57,24.98-12.66,37.53-1.69,5.18-3.36,10.37-5.01,15.57-.55,1.71-1.09,3.43-1.63,5.14-.29.91-.71,1.86-.89,2.8-.02.13-.08.25-.12.37h1.45c-4.8-23.37-9.63-46.9-10.32-70.83-.16-5.71-.89-12.58,2.55-17.53.55-.79-.75-1.54-1.3-.76h0Z"/>
  <path d="M192.48,153.22c1.59,4.61,7.45,4.09,11.03,2.46,2.65-1.21,5.27-3.03,8.3-2.93,1.93.06,3.68.95,5.2,2.08,5.35,3.99,10.7,14.04,18.75,10.14,4.18-2.02,6.05-7.01,7.6-11.07,1.11-2.92,2.31-5.79,3.78-8.55s3.04-5.72,5.43-7.78,5.5-2.49,7.42.31c1.42,2.08,1.81,4.73,2.5,7.1,1.7,5.88,4.32,11.51,7.72,16.6.95,1.42,1.96,2.79,3.02,4.12.79.99,1.73,2.24,3.12,2.31s2.3-1.17,3.04-2.19c.99-1.36,1.79-2.84,2.52-4.35,2.7-5.55,5.11-13.11,11.97-14.62.94-.21.54-1.65-.4-1.45-5.27,1.16-8.48,5.93-10.65,10.51-1.26,2.66-2.35,5.43-3.92,7.93-.41.65-.83,1.3-1.34,1.89-.9,1.04-1.69.73-2.5-.14-1.05-1.13-1.96-2.45-2.84-3.71-3.52-5.03-6.26-10.6-8.05-16.48-1.2-3.94-1.91-10.33-7.03-11.02-5.42-.72-8.97,5.89-11.09,9.81-1.46,2.7-2.71,5.51-3.8,8.38-.85,2.26-1.71,4.53-2.92,6.62-1.13,1.96-2.66,3.89-4.86,4.69-1.8.66-3.75.48-5.46-.36-3.41-1.67-5.81-4.96-8.46-7.57-3.05-3-6.74-5.51-11.22-4.45-3.1.74-5.65,2.9-8.74,3.64-2.33.56-5.77.31-6.69-2.34-.31-.91-1.76-.52-1.45.4h0Z"/>
  <path d="M165.19,131.77l5.45-5.75c1.28-1.35,3.06-4.09,5.15-4.05s3.58,2.42,3.88,4.3c.38,2.38-.2,4.8-.13,7.19.23,7.95,6.37,14.03,11.8,19.13.7.66,1.77-.4,1.06-1.06-4.85-4.55-10.53-9.92-11.28-16.91-.38-3.53,1.02-7.41-.64-10.75-1.26-2.52-4.22-4.39-6.9-2.76-1.68,1.02-2.99,2.8-4.33,4.21l-5.11,5.39c-.66.7.4,1.76,1.06,1.06h0Z"/>
  <path d="M164.02,132c.97,0,.97-1.5,0-1.5s-.97,1.5,0,1.5h0Z"/>
  <path d="M250.17,193.17c.97,0,.97-1.5,0-1.5s-.97,1.5,0,1.5h0Z"/>
</svg>