<?xml version="1.0" encoding="UTF-8"?>
<svg id="Lag_1" data-name="Lag 1" xmlns="http://www.w3.org/2000/svg" viewBox="0 0 150.74 152.28">
  <path d="M69.1,151.51c-.33-.18-8.1-4.48-8.5-11.54-.21-3.63,1.57-7.26,5.28-10.78,3.54-3.36,8.13-5.57,12.99-7.91,12.38-5.96,26.4-12.72,26.3-41.49-.01-3.54-.65-6.88-1.85-9.64-3.56-8.2-17.07-33.8-41.46-18.81-.19.12-.38.22-.57.33-.44.25-.86.49-1.25.82-15.87,13.29-17.28,25.83-17.34,29.36-.1,6.68,2.84,12.93,8.76,18.58.45.43.95.8,1.47,1.1,4.22,2.42,25.7,13.37,34.24-8.92,1.53-3.99,1.93-8.91,1.11-13.5-.81-4.53-2.71-8.14-5.22-9.91-2.69-1.9-6.15-2.81-10.26-2.7-.61.02-1.24.16-1.9.42-2.2.89-9.47,4.28-10.7,10.67-.47,2.47,0,5.19,1.43,8.09.01.03,1.55,3.09,4.27,4.86,3.64,2.37,7.55,1.45,11.63-2.75.02-.02,2.21-2.44,2.05-5.18-.11-1.87-1.3-3.53-3.52-4.95-1.68-1.07-3.41-1.3-5.01-.68-.8.31-1.79.92-1.96,2.08-.17,1.13.42,2.76,1.71,4.72l-.38.73c-1.5-2.29-2.11-4.15-1.88-5.7.2-1.32,1-2.26,2.39-2.79,1.71-.66,3.55-.41,5.33.72,2.44,1.55,3.75,3.49,3.89,5.76.2,3.34-2.21,6-2.32,6.12-5.3,5.45-9.54,4.54-12.16,2.81-2.84-1.87-4.41-4.99-4.48-5.12-1.56-3.18-2.08-6.21-1.54-9.03,1.28-6.68,8.19-10.14,11.11-11.31.69-.28,1.37-.43,2.02-.45,4.19-.12,7.72.82,10.48,2.77,2.67,1.88,4.69,5.72,5.55,10.53.87,4.88.44,10.1-1.18,14.33-8.77,22.88-30.61,11.77-34.9,9.31-.56-.32-1.08-.72-1.57-1.17-6.11-5.83-9.16-12.38-9.05-19.46.22-14.5,13.57-26.79,17.65-30.21.43-.36.89-.62,1.32-.87.19-.11.37-.21.56-.32,24.76-15.21,38.49,10.81,42.11,19.15,1.27,2.93,1.95,6.47,1.97,10.22.11,29.52-14.14,36.38-26.71,42.44-4.83,2.32-9.38,4.52-12.87,7.82-3.5,3.31-5.18,6.62-4.99,9.83.37,6.43,8.03,10.66,8.11,10.71l-.17.93Z" style="fill: #1d1d1b; stroke: #000; stroke-miterlimit: 10;"/>
  <path d="M53.75,124.06c1.61,0,1.61-2.5,0-2.5s-1.61,2.5,0,2.5h0Z" style="fill: #1d1d1b;"/>
  <path d="M48.17,120.21c1.61,0,1.61-2.5,0-2.5s-1.61,2.5,0,2.5h0Z" style="fill: #1d1d1b;"/>
  <path d="M43.71,116.36c1.61,0,1.61-2.5,0-2.5s-1.61,2.5,0,2.5h0Z" style="fill: #1d1d1b;"/>
  <path d="M39.7,111.74c1.61,0,1.61-2.5,0-2.5s-1.61,2.5,0,2.5h0Z" style="fill: #1d1d1b;"/>
  <path d="M36.35,106.74c1.61,0,1.61-2.5,0-2.5s-1.61,2.5,0,2.5h0Z" style="fill: #1d1d1b;"/>
  <polygon points="116.7 76.48 116.66 75.99 121.41 75 121.45 75.48 116.7 76.48" style="fill: #1d1d1b; stroke: #000; stroke-miterlimit: 10;"/>
  <rect x="126.47" y="74.99" width="6.23" height=".49" style="fill: #1d1d1b; stroke: #000; stroke-miterlimit: 10;"/>
  <polygon points="137.16 72.99 137.13 72.51 150.18 70.02 150.21 70.5 137.16 72.99" style="fill: #1d1d1b; stroke: #000; stroke-miterlimit: 10;"/>
  <polygon points="116.74 68.2 116.62 67.24 126.41 63.67 126.53 64.63 116.74 68.2" style="fill: #1d1d1b; stroke: #000; stroke-miterlimit: 10;"/>
  <polygon points="112.56 59.99 112.3 59.12 121.3 51.47 121.56 52.34 112.56 59.99" style="fill: #1d1d1b; stroke: #000; stroke-miterlimit: 10;"/>
  <polygon points="108.11 52.31 107.78 51.5 110.44 48.44 110.77 49.24 108.11 52.31" style="fill: #1d1d1b; stroke: #000; stroke-miterlimit: 10;"/>
  <polygon points="110.77 49.25 110.45 48.43 116.77 41.29 117.09 42.1 110.77 49.25" style="fill: #1d1d1b; stroke: #000; stroke-miterlimit: 10;"/>
  <polygon points="117.25 23.95 116.86 23.22 121.25 16.59 121.64 17.32 117.25 23.95" style="fill: #1d1d1b; stroke: #000; stroke-miterlimit: 10;"/>
  <polygon points="109.47 33.9 109.09 33.16 112.24 28.57 112.62 29.31 109.47 33.9" style="fill: #1d1d1b; stroke: #000; stroke-miterlimit: 10;"/>
  <polygon points="101.69 46.6 101.29 45.9 105.33 39.31 105.74 40.01 101.69 46.6" style="fill: #1d1d1b; stroke: #000; stroke-miterlimit: 10;"/>
  <polygon points="94.72 42.01 94.28 41.38 103.29 23.27 103.74 23.9 94.72 42.01" style="fill: #1d1d1b; stroke: #000; stroke-miterlimit: 10;"/>
  <polygon points="86.56 37.8 86.02 37.43 87.54 31.06 88.08 31.42 86.56 37.8" style="fill: #1d1d1b; stroke: #000; stroke-miterlimit: 10;"/>
  <polygon points="78.68 37.72 78.11 37.51 80.84 16.85 81.41 17.06 78.68 37.72" style="fill: #1d1d1b; stroke: #000; stroke-miterlimit: 10;"/>
  <rect x="67.13" y="32.64" width=".58" height="7.02" style="fill: #1d1d1b; stroke: #000; stroke-miterlimit: 10;"/>
  <polygon points="65.65 23.7 64.73 17.06 65.3 16.84 66.21 23.48 65.65 23.7" style="fill: #1d1d1b; stroke: #000; stroke-miterlimit: 10;"/>
  <polygon points="63.52 9.69 62 1.02 62.56 .74 64.08 9.42 63.52 9.69" style="fill: #1d1d1b; stroke: #000; stroke-miterlimit: 10;"/>
  <polygon points="57.49 39.95 50.5 23.87 50.97 23.3 57.96 39.37 57.49 39.95" style="fill: #1d1d1b; stroke: #000; stroke-miterlimit: 10;"/>
  <polygon points="50.51 45.59 46.56 37.94 47 37.3 50.95 44.95 50.51 45.59" style="fill: #1d1d1b; stroke: #000; stroke-miterlimit: 10;"/>
  <polygon points="44.35 50.8 29.62 36.57 29.91 35.72 44.64 49.95 44.35 50.8" style="fill: #1d1d1b; stroke: #000; stroke-miterlimit: 10;"/>
  <polygon points="36.45 56.19 30.46 52.36 30.66 51.44 36.64 55.27 36.45 56.19" style="fill: #1d1d1b; stroke: #000; stroke-miterlimit: 10;"/>
  <polygon points="27.16 49.24 22.6 43.66 22.94 42.86 27.5 48.45 27.16 49.24" style="fill: #1d1d1b; stroke: #000; stroke-miterlimit: 10;"/>
  <polygon points="18.09 42.15 12.62 38.06 12.86 37.17 18.33 41.25 18.09 42.15" style="fill: #1d1d1b; stroke: #000; stroke-miterlimit: 10;"/>
  <polygon points="26.94 60.03 22.5 57.99 22.65 57.04 27.08 59.08 26.94 60.03" style="fill: #1d1d1b; stroke: #000; stroke-miterlimit: 10;"/>
  <polygon points="34.93 66.41 30.49 64.62 30.62 63.67 35.06 65.46 34.93 66.41" style="fill: #1d1d1b; stroke: #000; stroke-miterlimit: 10;"/>
  <polygon points="32.74 73.23 22.53 70.74 22.61 69.78 32.82 72.26 32.74 73.23" style="fill: #1d1d1b; stroke: #000; stroke-miterlimit: 10;"/>
  <polygon points="21.11 84.02 21.08 83.05 30.54 82.02 30.58 83 21.11 84.02" style="fill: #1d1d1b; stroke: #000; stroke-miterlimit: 10;"/>
  <polygon points=".63 99.13 .54 98.17 11.18 95.3 11.27 96.26 .63 99.13" style="fill: #1d1d1b; stroke: #000; stroke-miterlimit: 10;"/>
  <polygon points="15.49 94.23 15.46 93.25 21.08 92.74 21.11 93.72 15.49 94.23" style="fill: #1d1d1b; stroke: #000; stroke-miterlimit: 10;"/>
  <polygon points="26.45 92.48 26.24 91.93 30.44 90.72 30.65 91.27 26.45 92.48" style="fill: #1d1d1b; stroke: #000; stroke-miterlimit: 10;"/>
</svg>