<?xml version="1.0" encoding="UTF-8"?>
<svg id="Lag_1" data-name="Lag 1" xmlns="http://www.w3.org/2000/svg" viewBox="0 0 149.68 150.77">
  <path d="M68.56,150.77c-.33-.18-8.1-4.48-8.5-11.54-.21-3.63,1.57-7.26,5.28-10.78,3.54-3.36,8.13-5.57,12.99-7.91,12.38-5.96,26.4-12.72,26.3-41.49-.01-3.54-.65-6.88-1.85-9.64-3.56-8.2-17.07-33.8-41.46-18.81-.19.12-.38.22-.57.33-.44.25-.86.49-1.25.82-15.87,13.29-17.28,25.83-17.34,29.36-.1,6.68,2.84,12.93,8.76,18.58.45.43.95.8,1.47,1.1,4.22,2.42,25.7,13.37,34.24-8.92,1.53-3.99,1.93-8.91,1.11-13.5-.81-4.53-2.71-8.14-5.22-9.91-2.69-1.9-6.15-2.81-10.26-2.7-.61.02-1.24.16-1.9.42-2.2.89-9.47,4.28-10.7,10.67-.47,2.47,0,5.19,1.43,8.09.01.03,1.55,3.09,4.27,4.86,3.64,2.37,7.55,1.45,11.63-2.75.02-.02,2.21-2.44,2.05-5.18-.11-1.87-1.3-3.53-3.52-4.95-1.68-1.07-3.41-1.3-5.01-.68-.8.31-1.79.92-1.96,2.08-.17,1.13.42,2.76,1.71,4.72l-.38.73c-1.5-2.29-2.11-4.15-1.88-5.7.2-1.32,1-2.26,2.39-2.79,1.71-.66,3.55-.41,5.33.72,2.44,1.55,3.75,3.49,3.89,5.76.2,3.34-2.21,6-2.32,6.12-5.3,5.45-9.54,4.54-12.16,2.81-2.84-1.87-4.41-4.99-4.48-5.12-1.56-3.18-2.08-6.21-1.54-9.03,1.28-6.68,8.19-10.14,11.11-11.31.69-.28,1.37-.43,2.02-.45,4.19-.12,7.72.82,10.48,2.77,2.67,1.88,4.69,5.72,5.55,10.53.87,4.88.44,10.1-1.18,14.33-8.77,22.88-30.61,11.77-34.9,9.31-.56-.32-1.08-.72-1.57-1.17-6.11-5.83-9.16-12.38-9.05-19.46.22-14.5,13.57-26.79,17.65-30.21.43-.36.89-.62,1.32-.87.19-.11.37-.21.56-.32,24.76-15.21,38.49,10.81,42.11,19.15,1.27,2.93,1.95,6.47,1.97,10.22.11,29.52-14.14,36.38-26.71,42.44-4.83,2.32-9.38,4.52-12.87,7.82-3.5,3.31-5.18,6.62-4.99,9.83.37,6.43,8.03,10.66,8.11,10.71l-.17.93Z" style="fill: #1d1d1b;"/>
  <path d="M53.21,123.94c2.41,0,2.42-3.75,0-3.75s-2.42,3.75,0,3.75h0Z" style="fill: #1d1d1b;"/>
  <path d="M47.64,120.09c2.41,0,2.42-3.75,0-3.75s-2.42,3.75,0,3.75h0Z" style="fill: #1d1d1b;"/>
  <path d="M43.17,116.24c2.41,0,2.42-3.75,0-3.75s-2.42,3.75,0,3.75h0Z" style="fill: #1d1d1b;"/>
  <path d="M39.16,111.62c2.41,0,2.42-3.75,0-3.75s-2.42,3.75,0,3.75h0Z" style="fill: #1d1d1b;"/>
  <path d="M35.81,106.62c2.41,0,2.42-3.75,0-3.75s-2.42,3.75,0,3.75h0Z" style="fill: #1d1d1b;"/>
  <polygon points="116.16 75.73 116.13 75.25 120.87 74.25 120.91 74.74 116.16 75.73" style="fill: #1d1d1b;"/>
  <rect x="125.93" y="74.25" width="6.23" height=".49" style="fill: #1d1d1b;"/>
  <polygon points="136.63 72.25 136.59 71.76 149.64 69.27 149.68 69.76 136.63 72.25" style="fill: #1d1d1b;"/>
  <polygon points="116.21 67.45 116.08 66.5 125.87 62.92 125.99 63.88 116.21 67.45" style="fill: #1d1d1b;"/>
  <polygon points="112.03 59.25 111.76 58.37 120.76 50.72 121.02 51.59 112.03 59.25" style="fill: #1d1d1b;"/>
  <polygon points="107.58 51.56 107.25 50.75 109.91 47.69 110.24 48.5 107.58 51.56" style="fill: #1d1d1b;"/>
  <polygon points="110.23 48.5 109.91 47.69 116.23 40.55 116.55 41.36 110.23 48.5" style="fill: #1d1d1b;"/>
  <polygon points="116.71 23.2 116.32 22.48 120.72 15.85 121.11 16.57 116.71 23.2" style="fill: #1d1d1b;"/>
  <polygon points="108.93 33.16 108.55 32.42 111.7 27.83 112.08 28.57 108.93 33.16" style="fill: #1d1d1b;"/>
  <polygon points="101.16 45.86 100.75 45.15 104.79 38.56 105.2 39.26 101.16 45.86" style="fill: #1d1d1b;"/>
  <polygon points="94.19 41.27 93.74 40.64 102.75 22.53 103.2 23.15 94.19 41.27" style="fill: #1d1d1b;"/>
  <polygon points="86.03 37.05 85.49 36.69 87 30.31 87.55 30.68 86.03 37.05" style="fill: #1d1d1b;"/>
  <polygon points="78.14 36.98 77.57 36.77 80.3 16.1 80.87 16.32 78.14 36.98" style="fill: #1d1d1b;"/>
  <rect x="66.59" y="31.9" width=".58" height="7.02" style="fill: #1d1d1b;"/>
  <polygon points="65.11 22.95 64.2 16.32 64.76 16.1 65.68 22.73 65.11 22.95" style="fill: #1d1d1b;"/>
  <polygon points="62.99 8.95 61.47 .28 62.02 0 63.54 8.67 62.99 8.95" style="fill: #1d1d1b;"/>
  <polygon points="56.95 39.2 49.96 23.13 50.43 22.55 57.42 38.62 56.95 39.2" style="fill: #1d1d1b;"/>
  <polygon points="49.98 44.85 46.02 37.19 46.46 36.55 50.42 44.2 49.98 44.85" style="fill: #1d1d1b;"/>
  <polygon points="43.81 50.05 29.08 35.83 29.37 34.98 44.1 49.2 43.81 50.05" style="fill: #1d1d1b;"/>
  <polygon points="35.91 55.44 29.92 51.62 30.12 50.7 36.1 54.53 35.91 55.44" style="fill: #1d1d1b;"/>
  <polygon points="26.62 48.49 22.06 42.91 22.41 42.12 26.96 47.7 26.62 48.49" style="fill: #1d1d1b;"/>
  <polygon points="17.56 41.4 12.09 37.32 12.32 36.42 17.79 40.51 17.56 41.4" style="fill: #1d1d1b;"/>
  <polygon points="26.4 59.28 21.96 57.24 22.11 56.3 26.55 58.34 26.4 59.28" style="fill: #1d1d1b;"/>
  <polygon points="34.39 65.66 29.96 63.88 30.09 62.93 34.52 64.71 34.39 65.66" style="fill: #1d1d1b;"/>
  <polygon points="32.2 72.49 22 70 22.08 69.03 32.28 71.52 32.2 72.49" style="fill: #1d1d1b;"/>
  <polygon points="20.58 83.28 20.54 82.3 30 81.28 30.04 82.26 20.58 83.28" style="fill: #1d1d1b;"/>
  <polygon points=".09 98.39 0 97.42 10.64 94.55 10.73 95.52 .09 98.39" style="fill: #1d1d1b;"/>
  <polygon points="14.95 93.48 14.92 92.5 20.54 91.99 20.57 92.97 14.95 93.48" style="fill: #1d1d1b;"/>
  <polygon points="25.91 91.73 25.7 91.18 29.9 89.98 30.11 90.53 25.91 91.73" style="fill: #1d1d1b;"/>
</svg>