<?xml version="1.0" encoding="UTF-8"?>
<svg id="Lag_1" data-name="Lag 1" xmlns="http://www.w3.org/2000/svg" viewBox="0 0 131.5 193.5">
  <path d="M68.87,119.72c-1.91-8.84-2.27-17.96-1.07-26.9.34-2.57.83-5.14,1.42-7.67.1-.46-.64-.65-.74-.19-2.12,8.94-2.68,18.19-1.62,27.31.3,2.57.72,5.13,1.27,7.66.1.46.85.26.74-.19h0Z" style="stroke: #000; stroke-miterlimit: 10; stroke-width: .5px;"/>
  <path d="M69.66,80.75c-.75,3.36-1.51,6.71-2.26,10.07-.1.46.64.65.74.19l2.26-10.07c.1-.46-.64-.65-.74-.19h0Z" style="stroke: #000; stroke-miterlimit: 10; stroke-width: .5px;"/>
  <path d="M69.56,85.44l3.3-1.17c.19-.07.34-.25.27-.45-.06-.17-.27-.33-.47-.25l-3.3,1.17c-.19.07-.34.25-.27.45.06.17.27.33.47.25h0Z" style="stroke: #000; stroke-miterlimit: 10; stroke-width: .5px;"/>
  <path d="M83.93,118.98c1.28-7.21,2.33-14.7-.7-21.67-2.59-5.94-7.42-11.26-8.13-17.83-.47-4.32.93-8.57,2.54-12.56.18-.44-.57-.63-.74-.19-1.39,3.48-2.62,7.1-2.65,10.85-.03,3.26,1,6.36,2.47,9.29s3.33,5.75,4.85,8.7c1.68,3.26,2.68,6.67,2.87,10.3.23,4.34-.49,8.65-1.24,12.92-.08.46.66.66.74.19h0Z" style="stroke: #000; stroke-miterlimit: 10; stroke-width: .5px;"/>
  <path d="M75.54,83.06c3.77-2.9,5.67-7.25,6.93-11.56.71-2.42,1.3-4.86,1.84-7.32.58-2.63,1.05-5.3,1.19-7.99.14-3-.19-6.03-1.27-8.86-.17-.44-.92-.25-.74.19,1.93,5.08,1.34,10.53.25,15.71-.95,4.5-1.94,9.24-4.03,13.43-1.12,2.25-2.65,4.31-4.71,5.9-.38.3.17.81.55.51h0Z" style="stroke: #000; stroke-miterlimit: 10; stroke-width: .5px;"/>
  <path d="M83.68,45.9c-2.89,1.65-5.34,3.86-7.6,6.2s-4.61,4.84-6.63,7.46c-1.03,1.34-1.96,2.75-2.68,4.26s-1.26,3.08-1.9,4.61c-1.16,2.77-2.88,5.22-5.23,7.21-2.54,2.15-5.63,3.64-8.97,4.31-.49.1-.28.8.21.7,5.76-1.16,10.88-4.78,13.62-9.68,1.65-2.94,2.39-6.22,4.23-9.08s4.33-5.48,6.71-8.03c2.56-2.76,5.28-5.44,8.63-7.35.42-.24.04-.87-.39-.63h0Z" style="stroke: #000; stroke-miterlimit: 10; stroke-width: .5px;"/>
  <path d="M83.03,49.24c-2.46,7.12-4.95,14.3-8.84,20.86-1.95,3.28-4.26,6.32-6.96,9.11-2.69,2.79-5.48,5.3-7.15,8.62s-2.17,7.4.08,10.56c.28.39.95.02.67-.37-2.08-2.94-1.62-6.77-.08-9.83,1.66-3.3,4.53-5.88,7.1-8.55,5.21-5.39,8.79-11.79,11.6-18.53,1.6-3.84,2.96-7.76,4.31-11.68.15-.45-.59-.64-.74-.19h.01Z" style="stroke: #000; stroke-miterlimit: 10; stroke-width: .5px;"/>
  <path d="M60.3,97.71c-1.18-1.86-2.35-3.72-3.53-5.58-1.07-1.69-2.16-3.37-3.47-4.9-2.51-2.93-5.8-5.17-9.17-7.15-2.05-1.2-4.15-2.35-6.23-3.51-.43-.24-.82.39-.39.63,3.48,1.94,7.04,3.81,10.27,6.1,1.59,1.14,3.1,2.39,4.41,3.81s2.48,3.15,3.55,4.82c1.31,2.05,2.59,4.1,3.89,6.16.26.4.93.04.67-.37h.01Z" style="stroke: #000; stroke-miterlimit: 10; stroke-width: .5px;"/>
  <path d="M60.36,98.67c.5,0,.5-.73,0-.73s-.5.73,0,.73h0Z" style="stroke: #000; stroke-miterlimit: 10; stroke-width: .5px;"/>
  <path d="M55.31,88.54c-2.59-3.43-5.09-6.95-7.85-10.25-2.45-2.92-5.43-5.31-9.06-6.82-6.53-2.71-15.37-2.75-20.71,2.26-2.74,2.57-4.22,6.37-3.35,9.98.11.46.86.26.74-.19-.75-3.14.43-6.45,2.68-8.81,2.38-2.5,5.89-3.84,9.39-4.22,7.36-.8,14.51,2.34,19.17,7.63,1.47,1.66,2.76,3.45,4.09,5.2l4.24,5.59c.29.38.96.02.67-.37h-.01Z" style="stroke: #000; stroke-miterlimit: 10; stroke-width: .5px;"/>
  <path d="M18.93,74.37c5.25,7.37,8.73,15.82,10.13,24.59.4,2.5.62,5.04.68,7.57,0,.39.68.51.76.1,1.49-7.98,3-16.42.06-24.28-.74-1.98-1.75-3.85-3.06-5.55l-.33.54c6.64.32,12.57,3.75,16.93,8.31,4.95,5.17,7.7,11.78,9.48,18.45,1.06,3.97,1.82,8,2.56,12.03.08.46.84.26.74-.19-1.35-7.33-2.74-14.77-6-21.6-2.82-5.92-7.21-11.28-13.2-14.63-3.2-1.8-6.79-2.9-10.53-3.09-.28,0-.51.33-.33.54,4.91,6.36,5.16,14.54,4.15,22.05-.33,2.42-.77,4.83-1.23,7.22l.76.1c-.21-8.97-2.55-17.85-6.81-25.87-1.22-2.3-2.59-4.51-4.12-6.65-.28-.39-.95-.02-.67.37h0Z" style="stroke: #000; stroke-miterlimit: 10; stroke-width: .5px;"/>
  <path d="M44.56,83.05c2.23,3.23,4.08,6.69,5.47,10.31.17.44.92.25.74-.19-1.42-3.68-3.28-7.2-5.55-10.49-.27-.39-.94-.03-.67.37h.01Z" style="stroke: #000; stroke-miterlimit: 10; stroke-width: .5px;"/>
  <path d="M23.94,82.16c-3.64,1-7.17,2.61-9.94,5.11s-4.48,5.76-4.65,9.31c-.09,1.95.34,3.88,1.32,5.61.24.42.88.05.67-.37-.4-.83-.82-1.65-1.22-2.47-.15-.31-.6-.17-.71.09-1.63,3.91-1.79,8.66,1.04,12.14,1.16,1.41,2.71,2.53,4.52,3.11,2.03.64,4.19.41,6.16-.31s3.98-1.88,5.8-3.06c1.71-1.11,3.35-2.33,4.89-3.64,3.09-2.63,5.8-5.65,8.06-8.95,2.56-3.74,4.52-7.84,5.78-12.14.13-.46-.61-.64-.74-.19-2.09,7.16-6.18,13.73-11.71,19.02-2.77,2.64-5.87,4.95-9.27,6.84-1.97,1.1-4.15,2.11-6.48,2.1-1.93,0-3.78-.79-5.2-1.99-3.84-3.24-3.88-8.48-2.12-12.73l-.71.09c.4.83.82,1.65,1.22,2.47l.67-.37c-1.7-2.98-1.54-6.62-.1-9.67s4.15-5.44,7.22-7.08c1.79-.95,3.7-1.66,5.68-2.2.47-.14.28-.83-.21-.7h.03Z" style="stroke: #000; stroke-miterlimit: 10; stroke-width: .5px;"/>
  <path d="M45.42,89.32c-1.08,5.13-2.68,10.16-4.79,15-.96,2.2-1.96,4.5-3.95,6.06-1.66,1.3-3.77,1.97-5.87,2.32-2.5.42-5.07.4-7.6.32-.5,0-.5.72,0,.73,4.35.13,9.31.16,13.08-2.19,2.08-1.3,3.33-3.21,4.31-5.33,1.16-2.48,2.18-5.02,3.05-7.59,1.02-2.99,1.86-6.03,2.5-9.11.09-.46-.65-.65-.74-.19h0Z" style="stroke: #000; stroke-miterlimit: 10; stroke-width: .5px;"/>
  <path d="M25.37,114.08c-2.32,3.16-5.59,5.65-9.34,7.16-1.96.79-4,1.25-6.11,1.52s-4.42.49-6.36,1.51c-1.74.92-3.13,2.44-3.31,4.36-.04.47.73.47.77,0,.18-1.84,1.73-3.21,3.42-3.97,2.07-.93,4.47-1,6.71-1.34,3.84-.58,7.46-2.14,10.48-4.42,1.69-1.27,3.17-2.79,4.41-4.46.29-.39-.38-.75-.67-.37h0Z" style="stroke: #000; stroke-miterlimit: 10; stroke-width: .5px;"/>
  <path d="M32.23,69.12c-.13-4.46,1.59-8.77,4.79-12.05,2.44-2.5,5.49-4.36,8.61-6.02,6.07-3.24,13.1-5.89,17.35-11.36,2.61-3.36,3.58-7.47,3.5-11.58s-1-8.7-2.29-12.81c-1.09-3.5-2.8-7.1-6.06-9.25-1.37-.9-2.96-1.34-4.57-1.76-6.6-1.7-14.13-1.97-20.32,1.13-.92.46-1.79.99-2.61,1.58-.39.28,0,.91.39.63,5.96-4.25,13.83-4.51,20.88-2.98,1.51.33,3.11.68,4.52,1.29,3.42,1.47,5.38,4.95,6.54,8.13.67,1.83,1.15,3.7,1.57,5.58.51,2.24.93,4.5,1.1,6.8.33,4.28-.29,8.64-2.86,12.28-3.92,5.54-10.92,8.24-16.87,11.36-3.03,1.58-6.03,3.33-8.52,5.61-3,2.75-5.07,6.29-5.71,10.2-.18,1.07-.24,2.15-.21,3.23.01.47.78.47.77,0h0v-.02Z" style="stroke: #000; stroke-miterlimit: 10; stroke-width: .5px;"/>
  <path d="M55.96,5.84c7.93,2.21,16.25,4.5,22.69,9.62,2.84,2.25,5.27,5,6.85,8.17,1.74,3.51,2.18,7.4,1.48,11.2-.85,4.62-3.03,8.91-5.36,13.01-.24.42.43.79.67.37,4.02-7.12,7.76-15.38,4.56-23.43-2.8-7.05-9.44-11.95-16.51-15-4.56-1.96-9.38-3.32-14.18-4.66-.47-.14-.68.57-.21.7h0Z" style="stroke: #000; stroke-miterlimit: 10; stroke-width: .5px;"/>
  <path d="M16.12,74.98c-4.85-5.05-8.42-11.14-10.48-17.66s-2.62-13.47-1.46-20.18,3.71-12.52,7.51-17.92,8.94-10.26,14.92-13.65S40.51-.13,47.73,1.52c.89.2,1.74.47,2.6.77.46.17.67-.53.21-.7-7.05-2.56-14.89-1.17-21.48,1.9s-12,7.67-16.3,13.06-7.3,11.51-8.82,18.01-1.44,13.72.24,20.4c1.68,6.68,4.97,13.12,9.59,18.52.59.69,1.2,1.36,1.83,2.01.33.35.88-.17.55-.51h0Z" style="stroke: #000; stroke-miterlimit: 10; stroke-width: .5px;"/>
  <path d="M24.13,70.98c-.56-2.53-1.93-4.78-3.24-7.03s-2.46-4.63-3.34-7.09c-1.73-4.86-2.53-10.02-2.33-15.15.11-2.93.55-5.84,1.3-8.69.12-.46-.63-.65-.74-.19-2.66,10.06-1.35,20.96,3.7,30.19,1.46,2.65,3.25,5.19,3.9,8.16.1.46.85.26.74-.19h.01Z" style="stroke: #000; stroke-miterlimit: 10; stroke-width: .5px;"/>
  <path d="M14.66,47.23c-1.82-4.92-3.71-10.11-2.91-15.39.66-4.34,2.71-8.56,5.23-12.22,4.64-6.78,11.6-12.13,19.52-15.18,4.43-1.71,9.16-2.69,13.95-2.82.5,0,.5-.74,0-.73-8.8.23-17.36,3.3-24.3,8.34s-12.86,12.55-14.83,20.84c-1.42,5.96.54,11.76,2.6,17.36.17.44.91.25.74-.19h-.01Z" style="stroke: #000; stroke-miterlimit: 10; stroke-width: .5px;"/>
  <path d="M50.06,1.71c4.53,1.07,8.77,3.1,12.4,5.85.38.29.94-.22.55-.51-2.92-2.21-6.19-3.98-9.71-5.17-1-.34-2.01-.63-3.03-.86-.49-.12-.69.59-.21.7h0Z" style="stroke: #000; stroke-miterlimit: 10; stroke-width: .5px;"/>
  <path d="M130.38,192.9c.8-7.73,1.62-15.69-.36-23.33-1.57-6.01-4.95-11.73-10.25-15.51-3-2.15-6.52-3.44-10.07-4.54-3.45-1.08-6.89-2.14-10.25-3.49-6.24-2.53-12.2-5.79-17.41-9.91s-9.27-8.69-12.15-14.2c-.37-.72-.72-1.45-1.04-2.17-.19-.43-.94-.24-.74.19,2.45,5.58,6.28,10.51,10.93,14.64,4.64,4.14,10.43,7.76,16.38,10.51,3.02,1.4,6.14,2.61,9.32,3.66,3.71,1.22,7.56,2.17,11.08,3.85,6.21,2.99,10.47,8.48,12.66,14.62,2.59,7.32,2.16,15.18,1.41,22.76-.09.98-.2,1.96-.3,2.93-.05.47.72.47.77,0h.01Z" style="stroke: #000; stroke-miterlimit: 10; stroke-width: .5px;"/>
</svg>