<?xml version="1.0" encoding="UTF-8"?>
<svg id="Lag_1" data-name="Lag 1" xmlns="http://www.w3.org/2000/svg" viewBox="0 0 221.84 198.79">
  <path d="M161.21,123.06c-1.86-9.11-2.21-18.5-1.04-27.71.33-2.65.8-5.29,1.38-7.9.1-.47-.62-.67-.72-.2-2.06,9.21-2.61,18.74-1.57,28.13.29,2.65.7,5.28,1.23,7.89.1.47.82.27.72-.2h0Z"/>
  <path d="M161.98,82.92c-.73,3.46-1.46,6.91-2.2,10.37-.1.47.62.67.72.2l2.2-10.37c.1-.47-.62-.67-.72-.2h0Z"/>
  <path d="M161.88,87.75l3.21-1.2c.18-.07.33-.26.26-.46-.06-.18-.26-.34-.46-.26l-3.21,1.2c-.18.07-.33.26-.26.46.06.18.26.34.46.26h0Z"/>
  <path d="M175.85,122.29c1.24-7.43,2.27-15.14-.68-22.32-2.52-6.12-7.21-11.6-7.9-18.36-.46-4.45.9-8.83,2.47-12.94.17-.45-.55-.65-.72-.2-1.35,3.58-2.55,7.31-2.58,11.18-.03,3.36.97,6.55,2.4,9.57s3.24,5.92,4.71,8.96c1.63,3.36,2.61,6.87,2.79,10.61.22,4.47-.47,8.91-1.2,13.31-.08.47.64.68.72.2h0Z"/>
  <path d="M167.7,85.3c3.66-2.99,5.51-7.47,6.74-11.91.69-2.49,1.26-5.01,1.79-7.54.56-2.71,1.02-5.46,1.15-8.23.14-3.09-.18-6.21-1.23-9.13-.16-.45-.89-.26-.72.2,1.88,5.23,1.3,10.85.24,16.18-.92,4.64-1.89,9.52-3.92,13.83-1.09,2.32-2.58,4.44-4.57,6.08-.37.31.16.83.53.53h0Z"/>
  <path d="M175.61,47.02c-2.81,1.7-5.19,3.98-7.38,6.39s-4.48,4.99-6.44,7.68c-1,1.38-1.91,2.83-2.61,4.39s-1.22,3.17-1.85,4.75c-1.12,2.85-2.8,5.38-5.09,7.43-2.47,2.21-5.48,3.75-8.72,4.44-.47.1-.27.82.2.72,5.6-1.19,10.57-4.92,13.24-9.97,1.6-3.03,2.33-6.41,4.11-9.35s4.21-5.64,6.52-8.27c2.49-2.84,5.14-5.6,8.38-7.57.41-.25.04-.9-.38-.65h0Z"/>
  <path d="M174.98,50.46c-2.39,7.33-4.81,14.73-8.6,21.49-1.9,3.38-4.14,6.51-6.76,9.38-2.62,2.87-5.33,5.46-6.95,8.88s-2.11,7.62.08,10.88c.27.4.92.02.65-.38-2.03-3.03-1.57-6.97-.08-10.12,1.61-3.4,4.4-6.06,6.9-8.81,5.07-5.55,8.55-12.14,11.27-19.09,1.55-3.96,2.88-7.99,4.19-12.03.15-.46-.57-.66-.72-.2h.01Z"/>
  <path d="M152.88,100.39c-1.14-1.92-2.29-3.83-3.43-5.75-1.04-1.74-2.1-3.47-3.37-5.05-2.44-3.02-5.64-5.32-8.92-7.36-2-1.24-4.03-2.42-6.06-3.62-.42-.25-.79.4-.38.65,3.38,2,6.84,3.92,9.98,6.28,1.54,1.17,3.01,2.46,4.28,3.92s2.41,3.24,3.45,4.96c1.27,2.11,2.52,4.22,3.78,6.34.25.41.9.04.65-.38h.01Z"/>
  <path d="M152.94,101.38c.48,0,.48-.75,0-.75s-.48.75,0,.75h0Z"/>
  <path d="M148.03,90.94c-2.52-3.53-4.94-7.16-7.63-10.56-2.38-3.01-5.28-5.47-8.81-7.02-6.35-2.79-14.93-2.83-20.13,2.33-2.67,2.65-4.1,6.56-3.26,10.28.11.47.83.27.72-.2-.73-3.23.42-6.64,2.61-9.07,2.32-2.58,5.73-3.96,9.13-4.35,7.15-.82,14.1,2.41,18.64,7.86,1.42,1.71,2.68,3.55,3.97,5.36l4.12,5.76c.28.39.93.02.65-.38h-.01Z"/>
  <path d="M112.67,76.35c5.11,7.59,8.49,16.29,9.85,25.33.39,2.58.6,5.19.66,7.8,0,.4.66.53.74.1,1.44-8.22,2.92-16.91.06-25.01-.72-2.04-1.71-3.97-2.98-5.72l-.32.56c6.45.33,12.22,3.86,16.46,8.56,4.81,5.33,7.48,12.13,9.22,19,1.03,4.09,1.77,8.24,2.49,12.39.08.47.81.27.72-.2-1.31-7.55-2.67-15.21-5.83-22.25-2.74-6.1-7.01-11.62-12.83-15.07-3.11-1.85-6.6-2.99-10.23-3.18-.27,0-.49.34-.32.56,4.77,6.55,5.01,14.98,4.03,22.71-.32,2.49-.75,4.97-1.19,7.44l.74.1c-.2-9.24-2.48-18.39-6.62-26.65-1.18-2.37-2.52-4.65-4-6.85-.27-.4-.92-.02-.65.38h0Z"/>
  <path d="M137.59,85.29c2.17,3.33,3.96,6.89,5.32,10.62.16.45.89.26.72-.2-1.38-3.79-3.19-7.42-5.4-10.8-.26-.4-.91-.03-.65.38h.01Z"/>
  <path d="M117.55,84.37c-3.54,1.03-6.97,2.69-9.66,5.26s-4.35,5.93-4.52,9.59c-.09,2.01.33,4,1.28,5.78.23.43.85.05.65-.38-.39-.85-.79-1.7-1.18-2.54-.15-.32-.58-.18-.69.09-1.58,4.03-1.74,8.92,1.01,12.5,1.12,1.45,2.64,2.61,4.39,3.2,1.98.66,4.07.42,5.99-.32s3.87-1.94,5.64-3.15c1.66-1.14,3.26-2.4,4.75-3.75,3-2.71,5.64-5.82,7.83-9.22,2.49-3.85,4.39-8.08,5.62-12.5.13-.47-.59-.66-.72-.2-2.04,7.37-6.01,14.14-11.38,19.59-2.69,2.72-5.71,5.1-9.01,7.04-1.92,1.13-4.03,2.17-6.3,2.16-1.88,0-3.67-.81-5.05-2.05-3.73-3.34-3.77-8.73-2.06-13.11l-.69.09c.39.85.79,1.7,1.18,2.54l.65-.38c-1.65-3.07-1.49-6.82-.1-9.96s4.03-5.6,7.02-7.29c1.74-.98,3.6-1.71,5.52-2.27.46-.14.27-.86-.2-.72h.03Z"/>
  <path d="M138.42,91.74c-1.05,5.28-2.61,10.46-4.65,15.45-.93,2.27-1.91,4.63-3.84,6.24-1.61,1.34-3.66,2.03-5.71,2.39-2.43.43-4.92.41-7.38.33-.48-.01-.48.74,0,.75,4.23.13,9.05.16,12.72-2.26,2.03-1.34,3.24-3.31,4.19-5.49,1.12-2.55,2.12-5.17,2.97-7.82.99-3.08,1.81-6.21,2.43-9.38.09-.47-.63-.67-.72-.2h0Z"/>
  <path d="M118.93,117.25c-2.26,3.25-5.44,5.82-9.08,7.37-1.91.81-3.89,1.29-5.94,1.57s-4.29.5-6.18,1.56c-1.7.95-3.04,2.51-3.22,4.49-.04.48.71.48.75,0,.17-1.89,1.68-3.31,3.32-4.09,2.02-.96,4.34-1.03,6.52-1.38,3.73-.6,7.25-2.2,10.19-4.55,1.64-1.31,3.08-2.87,4.28-4.59.28-.4-.37-.77-.65-.38h0Z"/>
  <path d="M125.6,70.94c-.13-4.59,1.54-9.03,4.65-12.41,2.37-2.57,5.34-4.49,8.36-6.2,5.9-3.34,12.73-6.07,16.86-11.7,2.54-3.46,3.48-7.69,3.4-11.93s-.97-8.96-2.23-13.19c-1.06-3.6-2.72-7.31-5.89-9.53-1.33-.93-2.88-1.38-4.44-1.81-6.42-1.75-13.73-2.03-19.75,1.16-.89.47-1.74,1.02-2.54,1.63-.38.29,0,.94.38.65,5.8-4.38,13.44-4.65,20.29-3.07,1.46.34,3.02.7,4.39,1.33,3.32,1.51,5.23,5.1,6.36,8.37.65,1.88,1.11,3.81,1.52,5.75.49,2.31.9,4.64,1.07,7,.32,4.41-.28,8.9-2.78,12.65-3.81,5.71-10.61,8.49-16.4,11.7-2.95,1.63-5.86,3.43-8.28,5.78-2.92,2.83-4.92,6.48-5.55,10.51-.17,1.1-.23,2.21-.2,3.33.01.48.76.48.75,0h0v-.02Z"/>
  <path d="M148.66,5.76c7.7,2.28,15.8,4.64,22.06,9.91,2.76,2.32,5.13,5.15,6.66,8.42,1.7,3.62,2.12,7.62,1.43,11.54-.82,4.76-2.95,9.18-5.21,13.4-.23.43.42.81.65.38,3.91-7.33,7.54-15.84,4.43-24.13-2.72-7.26-9.18-12.31-16.05-15.45-4.43-2.02-9.12-3.42-13.78-4.8-.46-.14-.66.59-.2.72h0Z"/>
  <path d="M109.95,76.97c-4.71-5.2-8.18-11.47-10.19-18.19s-2.55-13.87-1.41-20.78,3.61-12.9,7.3-18.46c3.69-5.56,8.69-10.57,14.5-14.06s13.5-5.87,20.52-4.17c.86.21,1.7.48,2.53.79.45.17.65-.55.2-.72-6.85-2.64-14.47-1.2-20.88,1.96s-11.66,7.9-15.85,13.45-7.09,11.85-8.58,18.55c-1.48,6.7-1.4,14.13.23,21.01,1.63,6.88,4.83,13.51,9.32,19.08.57.71,1.16,1.4,1.78,2.07.32.36.85-.17.53-.53h0Z"/>
  <path d="M117.73,72.86c-.54-2.61-1.88-4.92-3.15-7.24s-2.39-4.77-3.25-7.3c-1.68-5.01-2.46-10.32-2.27-15.6.11-3.02.53-6.02,1.26-8.95.12-.47-.61-.67-.72-.2-2.59,10.36-1.31,21.59,3.6,31.09,1.41,2.73,3.16,5.35,3.79,8.4.1.47.82.27.72-.2h.01Z"/>
  <path d="M108.52,48.39c-1.77-5.07-3.61-10.41-2.83-15.85.64-4.47,2.64-8.82,5.09-12.59,4.51-6.98,11.27-12.49,18.98-15.64,4.3-1.76,8.91-2.77,13.56-2.9.48,0,.48-.76,0-.75-8.56.24-16.87,3.4-23.62,8.59s-12.5,12.93-14.41,21.46c-1.38,6.14.52,12.11,2.53,17.88.16.45.88.26.72-.2h-.01Z"/>
  <path d="M142.93,1.51c4.4,1.1,8.53,3.19,12.06,6.03.37.3.91-.23.53-.53-2.84-2.28-6.02-4.1-9.44-5.33-.97-.35-1.96-.65-2.95-.89-.47-.12-.67.61-.2.72h0Z"/>
  <path d="M221,198.43c.78-7.96,1.57-16.16-.35-24.03-1.52-6.19-4.81-12.08-9.96-15.98-2.92-2.21-6.34-3.54-9.79-4.68-3.35-1.11-6.7-2.2-9.96-3.59-6.07-2.61-11.86-5.96-16.92-10.21-5.07-4.25-9.01-8.95-11.81-14.63-.36-.74-.7-1.49-1.01-2.24-.18-.44-.91-.25-.72.2,2.38,5.75,6.11,10.82,10.62,15.08s10.14,7.99,15.92,10.82c2.94,1.44,5.97,2.69,9.06,3.77,3.61,1.26,7.35,2.23,10.77,3.97,6.04,3.08,10.18,8.73,12.31,15.06,2.52,7.54,2.1,15.64,1.37,23.44-.09,1.01-.19,2.02-.29,3.02-.05.48.7.48.75,0h.01Z"/>
</svg>