<?xml version="1.0" encoding="UTF-8"?>
<svg id="retegning" xmlns="http://www.w3.org/2000/svg" viewBox="0 0 711.42 1003.38">
  <path d="M295.78,502.17c-.58-.18-14.27-4.57-14.98-11.79-.37-3.71,2.77-7.42,9.31-11.01,6.24-3.43,14.33-5.69,22.89-8.08,21.81-6.09,46.53-12.99,46.35-42.38-.02-3.62-1.15-7.03-3.27-9.85-6.27-8.38-30.08-34.53-73.07-19.22-.33.12-.67.23-1,.34-.78.25-1.51.5-2.21.84-27.97,13.58-30.45,26.39-30.55,29.99-.18,6.83,5.01,13.21,15.43,18.98.79.44,1.67.82,2.59,1.13,7.44,2.47,45.29,13.65,60.35-9.11,2.69-4.07,3.41-9.1,1.96-13.8-1.42-4.62-4.78-8.31-9.21-10.12-4.75-1.94-10.84-2.87-18.08-2.76-1.07.02-2.19.16-3.34.43-3.88.91-16.7,4.38-18.85,10.9-.83,2.52.02,5.3,2.52,8.26.02.03,2.74,3.15,7.52,4.96,6.41,2.42,13.31,1.48,20.5-2.81.03-.02,3.9-2.5,3.61-5.29-.2-1.91-2.29-3.61-6.2-5.05-2.95-1.09-6.01-1.33-8.83-.7-1.41.32-3.15.94-3.45,2.13-.3,1.15.75,2.82,3.01,4.82l-.66.75c-2.64-2.34-3.73-4.24-3.32-5.82.35-1.35,1.76-2.31,4.2-2.85,3.01-.68,6.26-.42,9.39.74,4.3,1.59,6.61,3.57,6.85,5.89.36,3.41-3.9,6.13-4.08,6.25-9.34,5.56-16.81,4.63-21.43,2.87-5.01-1.91-7.77-5.1-7.89-5.24-2.75-3.25-3.66-6.35-2.71-9.22,2.26-6.82,14.44-10.35,19.57-11.56,1.22-.29,2.41-.44,3.55-.46,7.39-.12,13.6.84,18.47,2.83,4.7,1.92,8.27,5.84,9.78,10.75,1.54,4.98.78,10.32-2.08,14.64-15.46,23.37-53.94,12.02-61.5,9.51-.98-.33-1.91-.73-2.76-1.2-10.77-5.96-16.14-12.65-15.95-19.88.4-14.81,23.91-27.36,31.11-30.86.76-.37,1.56-.63,2.33-.89.33-.11.66-.22.98-.33,43.64-15.54,67.83,11.04,74.21,19.56,2.24,2.99,3.44,6.6,3.47,10.44.19,30.16-24.92,37.17-47.08,43.35-8.5,2.37-16.54,4.62-22.68,7.99-6.16,3.39-9.12,6.76-8.8,10.04.65,6.56,14.15,10.89,14.29,10.94l-.3.95Z" style="fill: #1d1d1b;"/>
  <path d="M268.73,474.72c2.41,0,2.42-3.75,0-3.75s-2.42,3.75,0,3.75h0Z" style="fill: #1d1d1b;"/>
  <path d="M258.9,470.79c2.41,0,2.42-3.75,0-3.75s-2.42,3.75,0,3.75h0Z" style="fill: #1d1d1b;"/>
  <path d="M251.04,466.85c2.41,0,2.42-3.75,0-3.75s-2.42,3.75,0,3.75h0Z" style="fill: #1d1d1b;"/>
  <path d="M243.96,462.14c2.41,0,2.42-3.75,0-3.75s-2.42,3.75,0,3.75h0Z" style="fill: #1d1d1b;"/>
  <path d="M238.07,457.03c2.41,0,2.42-3.75,0-3.75s-2.42,3.75,0,3.75h0Z" style="fill: #1d1d1b;"/>
  <rect x="374.8" y="424.51" width="8.2" height=".5" transform="translate(-50.12 50.69) rotate(-7.18)" style="fill: #1d1d1b;"/>
  <rect x="391.61" y="424" width="10.68" height=".5" style="fill: #1d1d1b;"/>
  <rect x="409.85" y="420.19" width="22.52" height=".5" transform="translate(-44.89 50.38) rotate(-6.5)" style="fill: #1d1d1b;"/>
  <rect x="374.63" y="414.24" width="17.18" height="1" transform="translate(-79.48 91.05) rotate(-12.29)" style="fill: #1d1d1b;"/>
  <rect x="366.61" y="403.82" width="17.29" height="1" transform="translate(-142.13 212.99) rotate(-26.84)" style="fill: #1d1d1b;"/>
  <polygon points="360.13 400.82 359.57 400 364.13 396.87 364.69 397.7 360.13 400.82" style="fill: #1d1d1b;"/>
  <rect x="363.3" y="393.13" width="13.07" height="1" transform="translate(-156.83 273.82) rotate(-33.97)" style="fill: #1d1d1b;"/>
  <rect x="374.17" y="367.6" width="10.13" height="1" transform="translate(-148.88 347.84) rotate(-41.95)" style="fill: #1d1d1b;"/>
  <polygon points="362.46 382.03 361.8 381.27 367.21 376.58 367.87 377.33 362.46 382.03" style="fill: #1d1d1b;"/>
  <rect x="347.41" y="390.77" width="9.67" height="1" transform="translate(-173.04 356.06) rotate(-44.17)" style="fill: #1d1d1b;"/>
  <rect x="332.46" y="380.24" width="24.11" height="1" transform="translate(-168.54 401.27) rotate(-50.15)" style="fill: #1d1d1b;"/>
  <rect x="320.51" y="382.06" width="7.02" height="1" transform="translate(-151.51 541.33) rotate(-68.2)" style="fill: #1d1d1b;"/>
  <rect x="300.7" y="374.76" width="21.62" height="1" transform="translate(-122.34 598.04) rotate(-77.48)" style="fill: #1d1d1b;"/>
  <rect x="289.85" y="380.74" width="1" height="7.17" style="fill: #1d1d1b;"/>
  <rect x="286.52" y="364.62" width="1" height="6.95" transform="translate(-75.43 73.97) rotate(-13)" style="fill: #1d1d1b;"/>
  <rect x="282.35" y="348.1" width="1" height="9.24" transform="translate(-88.04 94.15) rotate(-16.39)" style="fill: #1d1d1b;"/>
  <rect x="267.23" y="369.53" width="1" height="20.33" transform="translate(-172.4 230.92) rotate(-36.13)" style="fill: #1d1d1b;"/>
  <rect x="257.85" y="384.55" width="1" height="10.35" transform="translate(-192.12 264.41) rotate(-40.91)" style="fill: #1d1d1b;"/>
  <rect x="237.91" y="377.01" width="1" height="29.14" transform="translate(-219.9 403.05) rotate(-60.1)" style="fill: #1d1d1b;"/>
  <rect x="232.64" y="396.74" width="1" height="11.25" transform="translate(-225.17 481.14) rotate(-69.66)" style="fill: #1d1d1b;"/>
  <rect x="217.2" y="389.59" width="1" height="9.68" transform="translate(-229.27 337.94) rotate(-53.9)" style="fill: #1d1d1b;"/>
  <rect x="200.78" y="382.77" width="1" height="10.27" transform="translate(-234.94 414.28) rotate(-66.04)" style="fill: #1d1d1b;"/>
  <rect x="217.2" y="403.14" width="1" height="8.09" transform="translate(-231.83 512.63) rotate(-75.07)" style="fill: #1d1d1b;"/>
  <rect x="231.27" y="409.82" width="1" height="8.03" transform="translate(-223.89 545.53) rotate(-76.87)" style="fill: #1d1d1b;"/>
  <rect x="222.28" y="411.36" width="1" height="18.16" transform="translate(-224.71 582.15) rotate(-81.95)" style="fill: #1d1d1b;"/>
  <rect x="211.17" y="431.7" width="16.71" height="1" transform="translate(-26.58 14.57) rotate(-3.58)" style="fill: #1d1d1b;"/>
  <rect x="175.63" y="446.2" width="18.48" height="1" transform="translate(-68.35 34.88) rotate(-9.1)" style="fill: #1d1d1b;"/>
  <rect x="201.27" y="442.39" width="9.92" height="1" transform="translate(-23.06 11.49) rotate(-3.02)" style="fill: #1d1d1b;"/>
  <rect x="221.44" y="441.08" width="6.59" height="1" transform="translate(-128.22 93.84) rotate(-18.45)" style="fill: #1d1d1b;"/>
</svg>