<?xml version="1.0" encoding="UTF-8"?>
<svg id="Lag_1" data-name="Lag 1" xmlns="http://www.w3.org/2000/svg" viewBox="0 0 132.97 195.01">
  <g>
    <path d="M69.64,120.66c-1.93-8.91-2.3-18.1-1.08-27.11.34-2.59.83-5.18,1.44-7.73.1-.46-.64-.66-.75-.2-2.14,9.01-2.71,18.34-1.63,27.53.3,2.59.73,5.17,1.28,7.72.1.46.85.26.75-.2h0Z"/>
    <path d="M69.23,121.38c-.11,0-.21-.02-.3-.07-.15-.08-.26-.22-.3-.39-.55-2.56-.98-5.17-1.28-7.75-1.08-9.19-.53-18.48,1.64-27.61.04-.17.14-.31.3-.39.13-.07.29-.09.44-.06.32.07.61.35.52.75-.62,2.63-1.1,5.22-1.43,7.71-1.22,9.03-.86,18.12,1.08,27.03v.06c.09.34-.2.63-.53.69-.05,0-.1.01-.15.01ZM69.6,85.61s-.09.03-.1.06c-2.16,9.07-2.7,18.31-1.63,27.45.3,2.57.73,5.16,1.28,7.7,0,.04.07.07.11.06.02,0,.15-.04.12-.15l.26-.06-.26.05c-1.95-8.97-2.31-18.12-1.08-27.2.33-2.5.82-5.11,1.44-7.75.03-.11-.09-.14-.12-.15,0,0-.01,0-.02,0Z"/>
  </g>
  <g>
    <path d="M70.44,81.38c-.76,3.39-1.52,6.76-2.29,10.15-.1.46.64.66.75.2l2.29-10.15c.1-.46-.64-.66-.75-.2h0Z"/>
    <path d="M68.57,92.24s-.1,0-.15-.01c-.32-.07-.61-.35-.52-.75.77-3.39,1.53-6.76,2.29-10.15h0c.07-.33.39-.52.74-.45.32.06.61.35.52.75l-2.29,10.15c-.04.17-.14.31-.3.39-.09.05-.19.07-.3.07ZM70.7,81.43c-.76,3.39-1.52,6.76-2.29,10.15-.03.12.09.15.12.15.04,0,.11-.02.11-.06l2.29-10.15c.03-.12-.09-.15-.12-.15-.09-.02-.11.03-.11.06h0Z"/>
  </g>
  <g>
    <path d="M70.34,86.11l3.34-1.17c.19-.07.34-.25.27-.45-.06-.18-.27-.33-.48-.25l-3.34,1.17c-.19.07-.34.25-.27.45.06.18.27.33.48.25h0Z"/>
    <path d="M70.23,86.38c-.08,0-.17-.02-.25-.05-.17-.08-.31-.22-.37-.39-.12-.33.12-.65.43-.76l3.34-1.18c.14-.05.3-.05.45.02.17.07.31.22.37.39.12.33-.12.65-.43.76l-3.34,1.17c-.07.02-.14.04-.21.04ZM70.2,85.87h.05s3.34-1.17,3.34-1.17c.06-.02.13-.09.11-.13-.02-.04-.05-.08-.09-.1l-3.39,1.17c-.06.02-.13.09-.11.13.02.04.05.09.09.1h0Z"/>
  </g>
  <g>
    <path d="M84.87,119.91c1.29-7.27,2.36-14.81-.71-21.84-2.62-5.99-7.5-11.35-8.22-17.97-.48-4.35.94-8.64,2.57-12.66.18-.44-.57-.64-.75-.2-1.4,3.5-2.65,7.15-2.68,10.94-.03,3.29,1.01,6.41,2.5,9.36s3.37,5.79,4.9,8.77c1.7,3.29,2.71,6.72,2.9,10.38.23,4.37-.49,8.72-1.25,13.02-.08.46.67.67.75.2h-.01Z"/>
    <path d="M84.56,120.43c-.16,0-.32-.06-.46-.16-.19-.15-.28-.37-.23-.6.81-4.6,1.46-8.75,1.24-12.97-.18-3.52-1.12-6.88-2.87-10.29-.74-1.43-1.57-2.85-2.37-4.23-.86-1.48-1.76-3-2.53-4.54-1.73-3.43-2.55-6.53-2.52-9.47.03-3.85,1.32-7.57,2.7-11.03.09-.22.27-.36.52-.4.25-.04.5.05.64.22.13.15.16.36.08.56-1.61,3.96-3.03,8.22-2.55,12.55.46,4.25,2.71,8.06,4.89,11.75,1.17,1.99,2.39,4.04,3.31,6.15,3.02,6.91,2.09,14.28.75,21.85h.01s-.02.14-.02.14c-.04.21-.17.37-.37.44-.07.02-.14.04-.21.04ZM78.14,67.24s-.02,0-.03,0c-.07.01-.09.05-.11.08-1.37,3.41-2.64,7.08-2.67,10.85-.03,2.87.78,5.9,2.47,9.26.77,1.52,1.65,3.04,2.51,4.51.81,1.38,1.64,2.81,2.38,4.25,1.79,3.47,2.74,6.89,2.93,10.48.22,4.26-.44,8.44-1.25,13.08,0,.02-.01.08.05.13.05.04.12.05.15.04h.01v-.06c1.34-7.54,2.3-14.88-.69-21.7-.91-2.08-2.11-4.12-3.28-6.09-2.2-3.73-4.48-7.58-4.95-11.94-.49-4.43.95-8.76,2.59-12.78-.02-.08-.07-.1-.12-.1Z"/>
  </g>
  <g>
    <path d="M76.39,83.71c3.81-2.93,5.73-7.31,7.01-11.65.72-2.44,1.31-4.9,1.86-7.38.58-2.65,1.06-5.34,1.2-8.05.15-3.02-.19-6.08-1.28-8.93-.17-.44-.93-.25-.75.2,1.96,5.12,1.35,10.62.25,15.83-.96,4.54-1.97,9.32-4.08,13.53-1.13,2.27-2.68,4.34-4.75,5.95-.38.3.17.81.55.52h-.01Z"/>
    <path d="M76.15,84.06c-.21,0-.42-.1-.55-.25-.22-.25-.18-.59.08-.8,1.9-1.47,3.48-3.45,4.68-5.86,2.1-4.2,3.1-8.91,4.06-13.48,1.01-4.8,1.78-10.42-.24-15.7-.08-.2-.05-.41.09-.56.15-.17.41-.25.65-.21.24.04.42.19.51.41,1.02,2.66,1.45,5.7,1.3,9.03-.12,2.35-.49,4.84-1.2,8.09-.67,3-1.24,5.28-1.87,7.39-1.1,3.74-2.88,8.41-6.87,11.6h.01s-.23.19-.23.19c-.13.1-.28.14-.42.14ZM84.8,47.69c-.05,0-.1.02-.12.04,0,0-.02.02,0,.07,2.06,5.4,1.29,11.1.26,15.97-.97,4.59-1.97,9.34-4.1,13.59-1.24,2.48-2.86,4.52-4.82,6.04-.03.02-.06.04,0,.1.02.03.1.08.17.06l.04-.04c4.04-3.11,5.82-7.79,6.92-11.53.62-2.11,1.19-4.38,1.86-7.36.71-3.22,1.08-5.69,1.19-8.01.16-3.26-.27-6.23-1.26-8.84-.01-.03-.03-.07-.1-.08-.01,0-.02,0-.03,0Z"/>
  </g>
  <g>
    <path d="M84.62,46.25c-2.92,1.66-5.4,3.89-7.68,6.25s-4.66,4.88-6.7,7.52c-1.04,1.35-1.99,2.77-2.71,4.3s-1.27,3.1-1.92,4.65c-1.16,2.79-2.91,5.26-5.29,7.27-2.57,2.16-5.7,3.67-9.07,4.34-.49.1-.28.8.21.7,5.82-1.16,10.99-4.81,13.77-9.76,1.66-2.96,2.42-6.27,4.27-9.15s4.38-5.52,6.78-8.09c2.59-2.78,5.35-5.48,8.72-7.41.43-.24.04-.88-.4-.64h.02Z"/>
    <path d="M51.35,81.54c-.34,0-.58-.25-.64-.51-.03-.15-.01-.3.06-.42.08-.14.23-.24.41-.28,3.31-.66,6.41-2.15,8.95-4.29,2.28-1.92,4.04-4.33,5.22-7.17.25-.58.48-1.17.71-1.75.38-.96.77-1.95,1.22-2.9.66-1.38,1.55-2.8,2.74-4.34,2.1-2.71,4.57-5.31,6.72-7.54,2.66-2.76,4.94-4.64,7.33-6.06h-.03s.42-.25.42-.25c.36-.2.71-.04.88.22.19.3.1.67-.21.85-3.38,1.93-6.16,4.68-8.66,7.36l-.46.49c-2.25,2.41-4.58,4.89-6.3,7.57-1,1.56-1.7,3.28-2.37,4.95-.56,1.39-1.14,2.83-1.9,4.19-2.81,5-8.03,8.7-13.95,9.88-.05.01-.1.02-.15.02ZM84.8,46.44l-.05.03c-2.49,1.42-4.84,3.33-7.62,6.21-2.14,2.22-4.6,4.8-6.68,7.49-1.17,1.51-2.04,2.9-2.69,4.25-.45.94-.84,1.92-1.21,2.87-.23.59-.46,1.18-.71,1.76-1.22,2.91-3.02,5.39-5.36,7.36-2.61,2.2-5.79,3.72-9.19,4.4-.05.01-.06.03-.06.04-.01.04,0,.1.04.14.03.03.07.05.12.03,5.77-1.15,10.85-4.75,13.59-9.63.74-1.33,1.32-2.75,1.87-4.13.68-1.69,1.38-3.44,2.41-5.03,1.75-2.71,4.09-5.22,6.35-7.64l.46-.49c2.52-2.71,5.34-5.49,8.78-7.46.09-.05.06-.12.03-.16-.03-.05-.06-.06-.09-.06Z"/>
  </g>
  <g>
    <path d="M83.96,49.62c-2.49,7.17-5,14.41-8.94,21.03-1.98,3.31-4.31,6.37-7.03,9.18-2.73,2.81-5.54,5.34-7.23,8.69s-2.19,7.46.08,10.65c.28.39.96.02.68-.37-2.11-2.96-1.63-6.82-.08-9.9,1.67-3.33,4.58-5.93,7.18-8.62,5.27-5.43,8.89-11.88,11.72-18.68,1.61-3.87,3-7.82,4.36-11.77.16-.45-.59-.65-.75-.2h.02Z"/>
    <path d="M61.16,99.58c-.2,0-.4-.08-.54-.27-2.05-2.88-2.09-6.95-.1-10.89,1.44-2.85,3.64-5.08,5.98-7.43.43-.43.86-.87,1.3-1.32,2.66-2.74,5.01-5.81,7-9.13,3.89-6.52,6.4-13.7,8.81-20.66h-.01l.1-.33c.08-.22.25-.37.48-.41.24-.05.5.03.65.2.15.15.19.36.11.57-1.32,3.82-2.74,7.88-4.36,11.79-3.29,7.92-7.04,13.88-11.77,18.76-.43.45-.87.89-1.32,1.34-2.18,2.2-4.44,4.48-5.81,7.22-1.77,3.51-1.74,7.12.06,9.66.2.28.13.62-.17.81-.12.08-.26.12-.4.12ZM84.23,49.64l-.02.06c-2.45,7.08-4.99,14.4-8.96,21.07-2.01,3.36-4.38,6.46-7.07,9.22-.43.45-.87.88-1.3,1.32-2.31,2.33-4.49,4.53-5.89,7.31-1.91,3.79-1.88,7.67.06,10.4.08.1.2.03.21.02.08-.05.05-.09.03-.12-1.91-2.68-1.95-6.48-.1-10.15,1.41-2.81,3.7-5.11,5.91-7.34.44-.45.88-.89,1.31-1.34,4.69-4.83,8.4-10.74,11.67-18.6,1.62-3.89,3.04-7.94,4.35-11.76.02-.05,0-.07,0-.08-.03-.03-.1-.05-.15-.04-.02,0-.04.01-.05.02Z"/>
  </g>
  <g>
    <path d="M60.98,98.48c-1.19-1.88-2.38-3.75-3.57-5.63-1.08-1.7-2.18-3.4-3.51-4.94-2.54-2.96-5.87-5.21-9.28-7.2-2.08-1.21-4.19-2.37-6.3-3.54-.44-.24-.82.39-.4.64,3.52,1.96,7.11,3.84,10.38,6.15,1.6,1.14,3.13,2.41,4.45,3.84s2.51,3.17,3.59,4.85c1.32,2.06,2.62,4.13,3.93,6.2.26.4.94.04.68-.37h.02Z"/>
    <path d="M62.29,100.08l-1.14-1.08c-.05.06-.12.12-.2.17-.32.19-.71.1-.9-.2l-.66-1.04c-1.09-1.72-2.17-3.44-3.27-5.16-1.01-1.57-2.22-3.37-3.56-4.82-1.19-1.28-2.63-2.53-4.41-3.8-2.7-1.91-5.69-3.55-8.57-5.14-.59-.33-1.19-.66-1.78-.99-.32-.18-.41-.55-.22-.85.16-.26.52-.42.88-.22l1.28.71c1.65.92,3.36,1.86,5.02,2.83,2.91,1.7,6.61,4.07,9.34,7.26,1.33,1.56,2.43,3.24,3.53,4.97.61.97,1.22,1.93,1.84,2.9.58.91,1.15,1.82,1.73,2.73l1.09,1.73ZM38.12,77.36s-.06.01-.09.06c-.03.04-.05.11.03.16.59.33,1.18.65,1.78.98,2.9,1.6,5.9,3.25,8.62,5.18,1.81,1.3,3.28,2.56,4.49,3.87,1.37,1.48,2.6,3.3,3.62,4.89,1.1,1.72,2.19,3.44,3.27,5.16l.66,1.04c.05.09.14.05.18.03.1-.06.06-.12.04-.14l-.24-.38h.02c-.49-.78-.99-1.56-1.48-2.34-.61-.97-1.23-1.93-1.84-2.9-1.09-1.71-2.18-3.38-3.48-4.91-2.69-3.13-6.33-5.46-9.21-7.15-1.66-.97-3.36-1.91-5.01-2.83l-1.28-.71s-.04-.02-.06-.02Z"/>
  </g>
  <g>
    <path d="M61.04,99.45c.5,0,.5-.73,0-.73s-.5.73,0,.73h0Z"/>
    <path d="M61.04,99.7c-.36,0-.64-.27-.64-.62s.27-.62.64-.62.64.27.64.62-.27.62-.64.62ZM61.04,98.96c-.09,0-.11.06-.11.12s.02.12.11.12.11-.06.11-.12-.02-.12-.11-.12Z"/>
  </g>
  <g>
    <path d="M55.93,89.23c-2.62-3.45-5.14-7.01-7.94-10.33-2.48-2.95-5.49-5.35-9.16-6.87-6.6-2.73-15.53-2.77-20.94,2.28-2.78,2.59-4.26,6.42-3.39,10.06.11.46.86.26.75-.2-.76-3.16.44-6.5,2.71-8.88,2.41-2.52,5.96-3.87,9.5-4.26,7.44-.8,14.67,2.36,19.39,7.69,1.48,1.67,2.79,3.47,4.13,5.24l4.29,5.64c.29.38.97.02.68-.37h-.01,0Z"/>
    <path d="M55.59,90.02c-.2,0-.4-.08-.54-.27l-4.96-6.53c-1.09-1.45-2.22-2.95-3.44-4.33-4.89-5.53-12.05-8.37-19.15-7.6-3.84.41-7.15,1.9-9.33,4.18-2.33,2.44-3.35,5.75-2.65,8.65.1.39-.19.68-.5.75-.16.03-.32.02-.45-.05-.16-.08-.27-.21-.31-.39-.85-3.56.47-7.5,3.46-10.29,5.66-5.29,14.97-4.92,21.23-2.33,3.48,1.44,6.6,3.78,9.26,6.94,2.01,2.39,3.9,4.93,5.73,7.39.73.98,1.46,1.96,2.19,2.93l.03.03s.02.03.03.04v.02c.16.26.09.56-.17.74-.12.08-.27.13-.42.13ZM29.79,70.66c6.48,0,12.8,2.86,17.27,7.91,1.24,1.4,2.37,2.91,3.47,4.36l4.96,6.53c.07.09.19.05.22.02h-.03v-.18c-.74-.96-1.45-1.93-2.17-2.89-1.83-2.45-3.71-4.99-5.71-7.37-2.61-3.1-5.66-5.39-9.06-6.8-6.09-2.52-15.16-2.9-20.65,2.23-2.86,2.67-4.13,6.44-3.32,9.83,0,.02.02.09.13.06.06-.01.12-.09.11-.15-.75-3.11.29-6.51,2.78-9.1,2.26-2.37,5.69-3.91,9.66-4.34.78-.08,1.57-.13,2.35-.13Z"/>
  </g>
  <g>
    <path d="M19.15,74.95c5.31,7.43,8.83,15.94,10.24,24.79.41,2.52.62,5.08.69,7.63,0,.39.69.52.77.1,1.5-8.04,3.04-16.55.06-24.47-.75-2-1.78-3.88-3.1-5.6l-.33.55c6.71.32,12.71,3.78,17.12,8.38,5,5.22,7.78,11.87,9.59,18.59,1.07,4,1.84,8.06,2.59,12.12.08.46.84.26.75-.2-1.36-7.39-2.78-14.88-6.06-21.77-2.85-5.97-7.29-11.37-13.34-14.75-3.23-1.81-6.86-2.93-10.64-3.11-.28,0-.51.33-.33.55,4.96,6.41,5.21,14.66,4.19,22.22-.33,2.44-.78,4.86-1.24,7.28l.77.1c-.21-9.04-2.58-17.99-6.89-26.08-1.23-2.32-2.62-4.55-4.16-6.7-.28-.39-.96-.02-.68.37h0Z"/>
    <path d="M57.11,117.55c-.07,0-.15-.01-.21-.04-.2-.07-.33-.23-.37-.44-.79-4.3-1.54-8.18-2.59-12.1-2.18-8.11-5.21-13.98-9.53-18.49-4.5-4.69-10-7.56-15.62-8.19.96,1.42,1.76,2.96,2.37,4.61,3.01,8.02,1.41,16.75-.03,24.46v.27s-.07,0-.07,0c-.1.23-.34.36-.63.34-.31-.03-.56-.23-.61-.5h-.04s.02-.13.02-.13c-.06-2.61-.29-5.16-.68-7.58-1.4-8.78-4.93-17.32-10.2-24.68-.13-.18-.15-.38-.05-.57.1-.2.33-.34.58-.36.25-.02.46.08.59.27,1.57,2.19,2.98,4.46,4.18,6.73,3.47,6.51,5.69,13.64,6.54,20.88.11-.7.22-1.4.31-2.1,1.27-9.4-.02-16.53-3.94-21.77h-.11s.05-.08.05-.08c-.05-.06-.1-.13-.15-.19-.13-.16-.15-.38-.05-.58.11-.22.35-.36.59-.36.09,0,.19,0,.28.02l.02-.04.03.04c3.59.23,7.18,1.31,10.44,3.13,5.67,3.16,10.32,8.3,13.45,14.86,3.35,7.03,4.8,14.89,6.08,21.83.05.22-.03.44-.22.59-.13.11-.3.16-.47.16ZM28.41,77.76c5.9.54,11.69,3.49,16.39,8.39,4.38,4.56,7.45,10.51,9.65,18.7,1.05,3.94,1.8,7.83,2.59,12.14.07.06.14.05.19.01.05-.04.05-.08.04-.12-1.28-6.91-2.72-14.75-6.05-21.72-3.09-6.47-7.66-11.53-13.24-14.63-3.05-1.71-6.41-2.75-9.76-3.03.06.08.12.16.18.25ZM30.41,107.05l.19.02c0-.29-.02-.58-.03-.87-.05.28-.11.56-.16.84ZM19.51,74.66s0,0-.01,0c-.06,0-.12.04-.14.08,0,0-.01.03.02.07h0c5.31,7.43,8.87,16.03,10.29,24.89.28,1.73.48,3.52.59,5.36.06-.34.12-.69.19-1.03-.65-7.84-2.93-15.6-6.68-22.63-1.19-2.25-2.59-4.5-4.14-6.68-.03-.04-.06-.06-.1-.06ZM30.97,104.05c.03.33.05.65.07.97,1.27-7.07,2.31-14.82-.37-21.94-.65-1.74-1.51-3.37-2.55-4.84-.1,0-.2-.02-.3-.02,3.81,5.32,5.05,12.46,3.79,21.8-.18,1.35-.41,2.7-.64,4.03ZM27.47,77.46s-.08.04-.1.08h0s0,.07,0,.07c0,0,0,0,0,.01l.1-.16s0,0,0,0Z"/>
  </g>
  <g>
    <path d="M45.07,83.7c2.26,3.26,4.12,6.74,5.53,10.39.17.44.93.25.75-.2-1.44-3.71-3.32-7.26-5.62-10.57-.27-.39-.95-.03-.68.37h.01,0Z"/>
    <path d="M50.99,94.59s-.08,0-.13-.01c-.24-.04-.42-.19-.51-.41-1.38-3.56-3.21-7-5.43-10.23h-.01l-.08-.12c-.19-.29-.11-.63.19-.82.28-.17.69-.16.93.17,2.3,3.3,4.2,6.88,5.64,10.62.08.2.05.41-.09.56-.12.14-.32.22-.52.22ZM45.27,83.53l.03.04c2.28,3.29,4.15,6.8,5.56,10.44.01.03.04.07.1.08.06.01.13-.01.15-.04,0,0,.02-.02,0-.07-1.44-3.71-3.32-7.25-5.59-10.52-.07-.1-.19-.04-.2-.03-.05.03-.06.06-.05.09Z"/>
  </g>
  <g>
    <path d="M24.23,82.8c-3.68,1.01-7.25,2.63-10.05,5.15s-4.52,5.8-4.7,9.38c-.09,1.97.34,3.91,1.33,5.66.24.42.88.05.68-.37-.41-.83-.82-1.66-1.23-2.49-.16-.31-.6-.18-.72.09-1.64,3.94-1.81,8.73,1.05,12.23,1.16,1.42,2.75,2.55,4.57,3.13,2.06.65,4.23.41,6.23-.31s4.03-1.9,5.87-3.08c1.73-1.12,3.39-2.35,4.94-3.67,3.12-2.65,5.87-5.69,8.14-9.02,2.59-3.77,4.57-7.91,5.85-12.23.14-.46-.61-.65-.75-.2-2.12,7.21-6.25,13.84-11.84,19.17-2.8,2.66-5.94,4.99-9.37,6.89-2,1.11-4.19,2.12-6.55,2.11-1.96,0-3.82-.79-5.25-2.01-3.88-3.27-3.92-8.54-2.14-12.83l-.72.09c.41.83.82,1.66,1.23,2.49l.68-.37c-1.72-3-1.55-6.67-.1-9.75s4.19-5.48,7.3-7.13c1.81-.96,3.74-1.67,5.74-2.22.48-.14.28-.84-.21-.7h.03Z"/>
    <path d="M17.68,116.21c-.91,0-1.78-.13-2.61-.39-1.79-.57-3.45-1.71-4.69-3.22-2.56-3.14-3-7.7-1.18-12.25l-.03-.06h.06c.02-.06.04-.11.06-.16.03-.06.07-.12.11-.17-.17-.86-.24-1.74-.19-2.63.17-3.55,1.87-6.94,4.78-9.55,2.23-2.01,5.09-3.59,8.52-4.72h-.15l1.75-.49c.13-.04.25-.04.35-.01h1.59l-1.18.33s.03.06.04.09c.09.29-.03.66-.43.77-2.15.59-4,1.31-5.69,2.2-2.36,1.26-5.53,3.5-7.19,7.02-1.31,2.78-1.46,5.82-.46,8.37.19.39.39.78.58,1.18.01.03.03.06.04.09l.06.1-.03.02c.03.28-.15.53-.38.64-.23.11-.48.08-.67-.06l-.07.04-.29-.58c-.06-.11-.11-.22-.16-.33l-.1-.19c-.04-.08-.08-.17-.13-.25-1.09,3.67-.89,8.13,2.6,11.07,1.48,1.25,3.29,1.94,5.08,1.94h.03c2.31,0,4.43-1,6.39-2.08,3.36-1.86,6.49-4.16,9.32-6.85,5.61-5.35,9.68-11.94,11.77-19.06.1-.33.45-.51.81-.42.35.09.55.42.45.75-1.29,4.37-3.27,8.51-5.88,12.3-2.29,3.35-5.05,6.4-8.19,9.07-1.55,1.32-3.22,2.56-4.97,3.69-1.47.95-3.69,2.3-5.92,3.11-1.29.47-2.58.71-3.8.71ZM9.52,101c-1.54,4.22-1.08,8.41,1.28,11.3,1.17,1.43,2.75,2.51,4.44,3.05,1.82.57,3.92.46,6.05-.31,2.18-.79,4.36-2.12,5.81-3.06,1.73-1.12,3.38-2.35,4.91-3.65,3.1-2.64,5.83-5.66,8.1-8.97,2.58-3.75,4.54-7.85,5.81-12.16,0-.02.03-.1-.09-.13-.05-.01-.13-.02-.16.07-2.12,7.2-6.23,13.86-11.9,19.28-2.86,2.72-6.03,5.05-9.43,6.93-1.92,1.06-4.21,2.15-6.65,2.15h-.03c-1.92,0-3.85-.74-5.43-2.07-3.85-3.24-3.9-8.21-2.58-12.12l-.15-.3ZM10.86,102.53s.03.06.05.09l.21-.11c-.17-.32-.32-.65-.45-.98-.07-.14-.13-.27-.2-.41l-.1-.2c-.03.08-.06.15-.09.23.12.36.27.72.43,1.06l.16.32ZM9.97,99.7c.06,0,.12,0,.18.02-.42-2.24-.09-4.69.98-6.97,1.72-3.65,4.98-5.95,7.41-7.25,1.72-.91,3.62-1.65,5.8-2.24.1-.03.09-.12.08-.15-.02-.06-.05-.08-.08-.08h-.03c-4.08,1.12-7.43,2.84-9.94,5.1-2.81,2.53-4.45,5.8-4.62,9.21-.04.8.01,1.59.16,2.36.02,0,.05,0,.07,0Z"/>
  </g>
  <g>
    <path d="M45.94,90.01c-1.09,5.17-2.71,10.24-4.84,15.12-.97,2.22-1.99,4.53-3.99,6.11-1.67,1.31-3.81,1.99-5.94,2.34-2.53.42-5.12.4-7.68.32-.5,0-.5.72,0,.73,4.4.13,9.41.16,13.23-2.21,2.11-1.31,3.37-3.24,4.36-5.37,1.16-2.5,2.21-5.06,3.09-7.65,1.03-3.01,1.88-6.08,2.53-9.18.09-.46-.66-.66-.75-.2h-.01Z"/>
    <path d="M26.12,114.93c-.87,0-1.75-.02-2.63-.04-.24,0-.43-.12-.55-.31-.12-.2-.11-.46.01-.65.11-.18.3-.29.55-.28,2.34.07,5.04.11,7.62-.32,2.47-.41,4.38-1.16,5.82-2.29,1.98-1.55,2.96-3.82,3.92-6.01,2.11-4.86,3.74-9.93,4.82-15.07l.09-.44.13.11c.05-.04.11-.07.17-.09.22-.07.49-.02.67.13.18.15.26.36.21.59-.63,3.03-1.48,6.13-2.54,9.21-.87,2.56-1.91,5.14-3.1,7.68-.82,1.77-2.07,4-4.45,5.48-3.08,1.91-6.8,2.3-10.75,2.3ZM23.48,114.15s-.09,0-.1.11c0,.06.06.13.12.13,4.82.14,9.45.08,13.08-2.17,1.77-1.1,3.08-2.72,4.26-5.26,1.18-2.52,2.21-5.09,3.08-7.63,1.05-3.06,1.89-6.14,2.52-9.15,0-.03,0-.08-.04-.12-.05-.04-.12-.05-.15-.04,0,0-.03,0-.04.06l-.09.45h-.02c-1.09,5-2.69,9.95-4.76,14.71-.93,2.14-1.99,4.57-4.07,6.2-1.51,1.19-3.5,1.97-6.06,2.39-2.63.44-5.37.4-7.73.33h0Z"/>
  </g>
  <g>
    <path d="M25.66,114.97c-2.35,3.18-5.66,5.69-9.44,7.21-1.99.79-4.05,1.26-6.18,1.54s-4.46.49-6.43,1.53c-1.77.93-3.16,2.46-3.35,4.39-.04.47.74.47.78,0,.18-1.85,1.75-3.24,3.45-4,2.1-.94,4.51-1.01,6.78-1.35,3.88-.59,7.54-2.15,10.6-4.45,1.71-1.28,3.2-2.81,4.45-4.49.29-.39-.38-.75-.68-.37h.01Z"/>
    <path d="M.62,130.25s-.04,0-.06,0c-.16-.01-.3-.07-.4-.17-.12-.11-.18-.27-.16-.45.18-1.85,1.45-3.52,3.48-4.59,1.84-.97,3.93-1.23,5.95-1.48l.57-.07c2.29-.29,4.29-.79,6.11-1.52,3.62-1.45,6.73-3.77,9.03-6.73h-.01l.3-.4c.25-.33.68-.32.96-.14.29.19.35.53.14.8-1.29,1.74-2.8,3.27-4.5,4.54-3.14,2.36-6.84,3.92-10.72,4.5-.55.08-1.11.15-1.68.22-1.71.21-3.48.42-5.03,1.11-1.92.86-3.16,2.28-3.3,3.8-.03.37-.36.58-.69.58ZM25.9,115.09l-.02.03c-2.38,3.22-5.69,5.75-9.56,7.3-1.87.75-3.91,1.25-6.25,1.55l-.57.07c-1.97.25-4.02.5-5.76,1.43-1.88.99-3.05,2.52-3.21,4.2,0,.04.04.08.08.08,0,0,.16.01.17-.12.16-1.7,1.51-3.27,3.6-4.21,1.63-.73,3.44-.95,5.19-1.16.56-.07,1.11-.13,1.66-.22,3.79-.57,7.41-2.1,10.48-4.4,1.66-1.25,3.14-2.74,4.4-4.44.02-.03.05-.06-.02-.11-.03-.02-.12-.06-.19,0Z"/>
  </g>
  <g>
    <path d="M32.6,69.66c-.14-4.49,1.6-8.84,4.84-12.14,2.47-2.51,5.55-4.39,8.7-6.07,6.14-3.27,13.24-5.94,17.54-11.45,2.64-3.39,3.62-7.52,3.54-11.67-.08-4.15-1.01-8.77-2.32-12.91-1.1-3.52-2.83-7.15-6.13-9.33-1.38-.91-3-1.35-4.62-1.77-6.68-1.71-14.28-1.99-20.54,1.14-.93.46-1.81,1-2.64,1.59-.4.28,0,.92.4.64,6.03-4.29,13.98-4.55,21.1-3,1.52.33,3.14.68,4.57,1.3,3.45,1.48,5.44,4.99,6.62,8.19.68,1.84,1.15,3.73,1.58,5.63.51,2.26.94,4.54,1.11,6.85.33,4.32-.29,8.71-2.89,12.38-3.96,5.59-11.04,8.31-17.06,11.45-3.07,1.59-6.09,3.36-8.61,5.66-3.04,2.77-5.12,6.34-5.77,10.28-.18,1.08-.24,2.16-.21,3.26.01.47.79.47.78,0h0v-.02h.03Z"/>
    <path d="M32.19,70.28c-.16,0-.31-.05-.43-.14-.14-.11-.22-.27-.23-.46-.03-1.14.04-2.25.21-3.3.65-3.93,2.68-7.53,5.85-10.43,2.66-2.43,5.88-4.24,8.67-5.69,1.06-.55,2.15-1.09,3.26-1.64,5.15-2.55,10.48-5.18,13.71-9.73,2.27-3.2,3.23-7.31,2.85-12.22-.15-1.99-.49-4.09-1.11-6.82-.38-1.68-.86-3.66-1.57-5.6-1.53-4.15-3.7-6.86-6.47-8.04-1.39-.6-2.95-.94-4.46-1.27-8.31-1.8-15.73-.75-20.94,2.95-.27.19-.62.15-.83-.11-.21-.26-.22-.68.12-.92.86-.62,1.76-1.16,2.68-1.62,5.53-2.76,12.89-3.17,20.73-1.16,1.44.37,3.22.84,4.7,1.81,2.81,1.85,4.79,4.86,6.23,9.46,1.43,4.5,2.25,9.11,2.33,12.97.09,4.61-1.15,8.7-3.59,11.83-3.46,4.44-8.72,7.05-13.8,9.58-1.27.63-2.57,1.28-3.82,1.94-2.83,1.51-6.06,3.4-8.63,6.02-3.21,3.28-4.9,7.53-4.77,11.97v.26s-.07,0-.07,0c-.03.08-.09.16-.16.22-.11.1-.27.15-.43.15,0,0-.01,0-.02,0ZM44.81,3.58c2.46,0,5.04.29,7.71.87,1.59.35,3.18.7,4.62,1.32,2.91,1.24,5.18,4.05,6.76,8.34.72,1.97,1.21,3.96,1.59,5.66.62,2.75.96,4.87,1.12,6.88.39,5.02-.6,9.24-2.93,12.54-3.3,4.66-8.69,7.32-13.9,9.9-1.1.54-2.19,1.08-3.25,1.63-2.76,1.44-5.94,3.23-8.56,5.62-3.09,2.82-5.06,6.33-5.69,10.14-.17,1.02-.24,2.1-.21,3.21,0,.06.08.11.14.11h0c.05,0,.12-.05.11-.1v-.26s.03,0,.03,0c-.07-4.48,1.67-8.76,4.91-12.08,2.62-2.67,5.9-4.59,8.76-6.11,1.25-.66,2.56-1.32,3.83-1.95,5.03-2.5,10.24-5.09,13.62-9.43,2.37-3.04,3.57-7.02,3.48-11.52-.08-3.82-.9-8.38-2.31-12.84-1.4-4.49-3.32-7.41-6.02-9.19-1.3-.85-2.76-1.27-4.54-1.73-7.71-1.98-14.94-1.58-20.35,1.12-.89.44-1.76.97-2.61,1.57-.1.07-.05.19-.02.22.04.05.06.04.1.02,3.64-2.59,8.33-3.91,13.61-3.91Z"/>
  </g>
  <g>
    <path d="M56.59,5.88c8.01,2.23,16.43,4.54,22.94,9.7,2.87,2.27,5.34,5.04,6.93,8.24,1.77,3.54,2.21,7.46,1.49,11.29-.85,4.66-3.07,8.98-5.42,13.11-.24.42.44.79.68.37,4.07-7.17,7.84-15.5,4.61-23.61-2.83-7.1-9.55-12.05-16.69-15.12-4.61-1.98-9.49-3.35-14.33-4.7-.48-.14-.69.58-.21.7h.01Z"/>
    <path d="M82.89,49.03c-.23,0-.46-.12-.59-.31-.12-.19-.13-.41-.01-.61,2.3-4.04,4.54-8.41,5.39-13.04.73-3.9.22-7.76-1.47-11.14-1.49-2.99-3.79-5.73-6.86-8.15-6.4-5.07-14.63-7.36-22.59-9.58l-.34-.1c-.19-.07-.32-.21-.37-.4-.06-.22.02-.47.19-.63.16-.15.38-.19.61-.13,4.75,1.32,9.67,2.69,14.37,4.71,5.92,2.55,13.65,7.26,16.83,15.26,3.22,8.08-.32,16.23-4.62,23.82-.11.2-.3.31-.52.32,0,0-.01,0-.02,0ZM56.73,5.66l.2.05c8.01,2.23,16.3,4.54,22.78,9.67,3.12,2.47,5.48,5.27,7,8.32,1.74,3.48,2.26,7.44,1.51,11.44-.86,4.69-3.13,9.11-5.45,13.19-.02.04-.02.08,0,.11.03.04.07.07.14.08.02,0,.04,0,.07-.05,4.25-7.49,7.74-15.51,4.59-23.4-3.12-7.84-10.73-12.47-16.56-14.98-4.66-2-9.56-3.36-14.3-4.69-.06-.02-.08,0-.09.01-.04.03-.06.1-.04.15,0,.02.02.05.07.06l.08.03Z"/>
  </g>
  <g>
    <path d="M16.32,75.56c-4.9-5.09-8.51-11.22-10.6-17.8s-2.65-13.57-1.47-20.33,3.75-12.62,7.59-18.06,9.04-10.34,15.08-13.76S40.98-.14,48.28,1.52c.89.21,1.77.47,2.63.77.47.17.68-.54.21-.7-7.12-2.58-15.05-1.17-21.72,1.92s-12.13,7.73-16.49,13.16c-4.36,5.43-7.37,11.6-8.92,18.15-1.54,6.56-1.46,13.83.24,20.56,1.7,6.73,5.02,13.22,9.69,18.67.59.69,1.21,1.37,1.85,2.03.33.35.88-.17.55-.52h0Z"/>
    <path d="M16.03,76.45c-.17,0-.33-.07-.46-.2-.63-.64-1.24-1.31-1.86-2.04-4.65-5.43-8.02-11.92-9.75-18.77-1.7-6.75-1.79-14.09-.24-20.67,1.57-6.65,4.59-12.79,8.97-18.25,4.7-5.86,10.28-10.31,16.58-13.23,7.71-3.58,15.49-4.26,21.93-1.93.39.14.51.53.39.83-.06.14-.16.25-.29.32-.15.07-.32.08-.5.02-.92-.32-1.77-.57-2.6-.76-6.33-1.44-14.04.04-21.15,4.05-5.82,3.29-11,8.02-15,13.68-3.94,5.59-6.41,11.46-7.55,17.97-1.16,6.59-.65,13.58,1.46,20.22,2.1,6.6,5.74,12.72,10.54,17.7h0c.29.3.18.69-.06.89-.13.11-.28.16-.43.16ZM43.16.5c-4.36,0-9.01,1.09-13.64,3.24-6.22,2.89-11.74,7.29-16.39,13.09-4.34,5.4-7.32,11.48-8.88,18.06-1.53,6.51-1.44,13.77.24,20.45,1.71,6.78,5.04,13.2,9.64,18.57.61.72,1.22,1.38,1.84,2.01.02.03.06.07.14,0,.02-.02.11-.1.02-.18-4.85-5.04-8.54-11.23-10.66-17.89-2.13-6.71-2.64-13.78-1.47-20.45,1.15-6.57,3.65-12.51,7.63-18.16,4.04-5.73,9.28-10.51,15.17-13.83C34.02,1.31,41.88-.19,48.34,1.28c.85.2,1.72.45,2.66.78.04.01.09-.01.1-.05,0,0,.05-.14-.08-.19-2.45-.89-5.1-1.33-7.87-1.33Z"/>
  </g>
  <g>
    <path d="M24.42,71.54c-.56-2.55-1.96-4.81-3.28-7.08s-2.49-4.67-3.38-7.14c-1.75-4.9-2.56-10.1-2.36-15.26.11-2.96.55-5.89,1.31-8.76.12-.46-.63-.66-.75-.2-2.69,10.14-1.36,21.13,3.74,30.42,1.47,2.67,3.29,5.24,3.94,8.22.1.46.85.26.75-.2h.02Z"/>
    <path d="M23.98,72.25c-.29,0-.53-.18-.59-.46-.5-2.27-1.71-4.34-2.88-6.34-.35-.61-.71-1.21-1.04-1.82-5.1-9.28-6.47-20.43-3.77-30.6.05-.21.21-.37.42-.43.23-.06.5,0,.67.16.17.15.23.37.17.58-.75,2.83-1.19,5.76-1.3,8.7-.2,5.15.59,10.25,2.35,15.18.84,2.32,1.97,4.71,3.36,7.1l.29.49c1.22,2.09,2.49,4.25,3.02,6.66l.07.3h-.09c-.07.24-.29.4-.52.44-.05.01-.1.02-.15.02ZM16.31,33.08s-.02,0-.04,0c-.02,0-.04.02-.05.06-2.67,10.06-1.32,21.08,3.72,30.25.33.61.68,1.21,1.04,1.81,1.19,2.03,2.42,4.13,2.93,6.48,0,.03.02.08.11.06.02,0,.15-.04.12-.15l-.07-.3h.02c-.55-2.21-1.74-4.25-2.89-6.22l-.29-.5c-1.41-2.42-2.55-4.83-3.4-7.18-1.78-4.98-2.57-10.15-2.38-15.36.12-2.98.56-5.94,1.32-8.81.01-.05,0-.08-.02-.1-.03-.03-.08-.04-.12-.04Z"/>
  </g>
  <g>
    <path d="M14.84,47.59c-1.84-4.96-3.75-10.19-2.94-15.51.67-4.37,2.75-8.63,5.29-12.32,4.69-6.83,11.72-12.22,19.74-15.3,4.47-1.72,9.27-2.71,14.1-2.84.5,0,.5-.74,0-.73-8.9.23-17.55,3.33-24.57,8.41s-13,12.65-14.99,21c-1.44,6.01.54,11.85,2.63,17.5.17.44.92.25.75-.2h-.02Z"/>
    <path d="M14.49,48.29c-.26,0-.52-.13-.63-.42-2.28-6.16-4.05-11.73-2.64-17.64,1.87-7.85,7.37-15.56,15.08-21.14C33.53,3.87,42.31.87,51.03.64c.23-.02.44.1.55.28.12.2.13.46,0,.66-.11.19-.31.3-.55.3-4.76.12-9.47,1.07-14,2.82-8.04,3.09-15.01,8.49-19.62,15.21-2.89,4.18-4.66,8.29-5.25,12.22-.8,5.25,1.13,10.54,2.87,15.22h.01l.07.17c.12.32-.04.63-.38.74-.08.03-.16.04-.24.04ZM51.04,1.14h0c-8.61.23-17.28,3.19-24.41,8.35-7.62,5.51-13.05,13.11-14.89,20.86-1.38,5.78.37,11.28,2.62,17.36.05.12.19.08.19.07.04-.01.06-.03.06-.05l-.03-.06c-1.77-4.78-3.78-10.2-2.96-15.63.61-4,2.4-8.18,5.33-12.42,4.67-6.8,11.73-12.27,19.86-15.4,4.59-1.77,9.37-2.73,14.2-2.86.06,0,.08-.02.1-.04.03-.04.03-.11,0-.15-.01-.02-.03-.04-.08-.04Z"/>
  </g>
  <g>
    <path d="M50.63,1.72c4.58,1.08,8.87,3.12,12.54,5.9.38.29.95-.23.55-.52-2.95-2.23-6.26-4.01-9.82-5.22-1.01-.34-2.04-.64-3.07-.87-.49-.12-.7.6-.21.7h0Z"/>
    <path d="M63.43,7.96c-.15,0-.3-.05-.42-.14-3.67-2.78-7.97-4.8-12.44-5.85-.23-.05-.39-.19-.45-.39-.07-.22,0-.47.17-.63.16-.16.39-.22.62-.16,1.02.23,2.06.53,3.09.88,3.53,1.19,6.86,2.96,9.89,5.26.17.13.26.32.23.51-.03.22-.21.41-.44.5-.08.03-.17.05-.25.05ZM50.73,1.25s-.05,0-.07.03c-.04.04-.06.1-.04.14,0,.01.01.04.07.05h0c4.54,1.07,8.92,3.13,12.64,5.95.02.01.07.05.15.02.06-.02.1-.07.11-.1-3.03-2.3-6.3-4.05-9.78-5.22-1.01-.34-2.03-.63-3.04-.86-.02,0-.03,0-.04,0Z"/>
  </g>
  <g>
    <path d="M131.83,194.41c.81-7.79,1.63-15.81-.36-23.51-1.58-6.06-5-11.82-10.36-15.64-3.04-2.16-6.59-3.46-10.18-4.58-3.48-1.09-6.97-2.15-10.36-3.51-6.31-2.55-12.34-5.83-17.6-9.99-5.27-4.16-9.37-8.76-12.28-14.32-.37-.72-.73-1.46-1.05-2.19-.19-.43-.95-.24-.75.2,2.48,5.63,6.36,10.59,11.05,14.76s10.55,7.82,16.56,10.59c3.06,1.41,6.21,2.63,9.42,3.69,3.75,1.23,7.64,2.18,11.2,3.88,6.28,3.01,10.59,8.54,12.8,14.74,2.62,7.38,2.18,15.3,1.42,22.94-.09.99-.2,1.98-.3,2.96-.05.47.73.47.78,0h.01Z"/>
    <path d="M131.39,195.01c-.14,0-.28-.04-.39-.11-.17-.12-.25-.3-.23-.52.1-.98.21-1.96.3-2.95.71-7.13,1.24-15.36-1.41-22.83-2.37-6.63-6.87-11.81-12.67-14.59-2.56-1.22-5.34-2.07-8.03-2.89-1.05-.32-2.1-.64-3.13-.98-3.29-1.08-6.47-2.33-9.45-3.7-6.33-2.92-12.08-6.59-16.62-10.63-4.99-4.43-8.73-9.43-11.11-14.84-.09-.19-.07-.39.06-.55.14-.17.38-.26.64-.23.25.03.45.18.54.39.3.7.65,1.43,1.04,2.18,2.76,5.27,6.76,9.93,12.22,14.23,4.92,3.89,10.82,7.24,17.53,9.95,3.18,1.28,6.51,2.31,9.72,3.31l.61.19c3.48,1.08,7.13,2.39,10.26,4.62,5.02,3.58,8.73,9.18,10.46,15.78,2.02,7.78,1.18,15.82.37,23.6l-.02.23h-.05c-.07.13-.18.23-.33.29-.09.04-.2.06-.3.06ZM69.24,120.68c-.06,0-.1.02-.12.04,2.36,5.4,6.06,10.34,10.99,14.72,4.51,4,10.21,7.65,16.49,10.55,2.96,1.36,6.12,2.6,9.39,3.68,1.03.34,2.08.66,3.12.98,2.71.83,5.52,1.68,8.11,2.92,5.93,2.84,10.52,8.13,12.93,14.88,2.69,7.57,2.15,15.86,1.44,23.04-.09.99-.2,1.98-.3,2.96.04.08.11.09.17.06.07-.03.08-.08.08-.11l.03-.22c.8-7.66,1.6-15.58-.38-23.2-1.69-6.48-5.34-11.99-10.26-15.5-3.07-2.18-6.67-3.47-10.11-4.54l-.61-.19c-3.23-1-6.56-2.04-9.77-3.33-6.76-2.74-12.7-6.11-17.66-10.03-5.51-4.35-9.55-9.06-12.35-14.4-.39-.76-.75-1.5-1.06-2.21,0-.02-.03-.08-.12-.09,0,0-.02,0-.03,0Z"/>
  </g>
</svg>